<svg width="292" height="243" viewBox="0 0 292 243" fill="none" xmlns="http://www.w3.org/2000/svg">
<path d="M234.711 2.00241C163.322 -7.82159 103.521 21.6954 103.521 21.6954C205.498 -12.1636 250.106 23.8384 250.106 61.3124C250.106 75.4194 245.2 88.2384 236.884 99.6904H281.045C300.611 63.5364 296.368 10.4864 234.711 2.00241Z" fill="url(#paint0_radial_176_58)"/>
<path d="M236.882 99.6904C218.346 125.22 182.833 143.935 146.724 154.88L144.556 188.741C193.056 178.271 255.831 143.941 280.109 101.415C280.432 100.849 280.732 100.265 281.043 99.6904H236.882Z" fill="url(#paint1_radial_176_58)"/>
<path d="M33.9071 141.846C36.5071 164.515 53.7521 183.026 84.2661 189.652L89.2411 160.899C77.2931 159.039 67.017 154.646 59.572 147.199C44.55 132.191 47.2421 114.408 54.4081 99.6895H42.8081C35.1251 112.03 32.1071 126.177 33.9071 141.846Z" fill="url(#paint2_radial_176_58)"/>
<path d="M118.009 114.029C114.529 114.935 110.947 115.397 107.351 115.402C102.095 115.402 97.7591 114.443 94.3871 112.102C91.1091 109.602 89.3711 106.26 89.5651 102.826C89.5811 95.3753 96.691 89.9262 108.307 89.9262C111.239 89.8743 114.163 90.2616 116.981 91.0752L115.863 93.7063C113.384 92.9319 110.794 92.5697 108.197 92.6342C99.786 92.6342 94.2721 96.4062 94.2721 102.663C94.2721 108.993 99.5431 112.742 107.654 112.742C109.66 112.826 111.667 112.6 113.604 112.071V104.628H106.582V102.047H117.999L118.009 114.029Z" fill="#00B6B3"/>
<path d="M151.887 102.408C151.887 110.979 144.639 115.557 135.802 115.557C126.607 115.557 120.219 110.428 120.219 102.878C120.219 94.9623 127.019 89.7593 136.273 89.7593C145.738 89.7603 151.887 94.9863 151.887 102.408ZM124.955 102.808C124.955 108.153 128.983 112.937 136.045 112.937C143.158 112.937 147.152 108.231 147.152 102.555C147.152 97.5813 143.552 92.3883 136.105 92.3883C128.658 92.3883 124.954 97.3433 124.954 102.807L124.955 102.808Z" fill="#00B6B3"/>
<path d="M184.75 102.408C184.75 110.979 177.502 115.557 168.664 115.557C159.469 115.557 153.082 110.428 153.082 102.878C153.082 94.9623 159.882 89.7593 169.136 89.7593C178.602 89.7603 184.75 94.9863 184.75 102.408ZM157.818 102.808C157.818 108.153 161.846 112.937 168.908 112.937C176.02 112.937 180.014 108.231 180.014 102.555C180.014 97.5813 176.414 92.3883 168.968 92.3883C161.522 92.3883 157.818 97.3443 157.818 102.808Z" fill="#00B6B3"/>
<path d="M187.965 90.5083C191.128 90.1455 194.309 89.9659 197.493 89.9703C203.907 89.9703 208.505 91.0703 211.538 93.1083C213.075 94.0295 214.339 95.3427 215.202 96.9135C216.064 98.4842 216.494 100.256 216.446 102.047C216.484 103.954 216.049 105.84 215.178 107.536C214.307 109.232 213.029 110.686 211.458 111.766C208.183 114.091 202.823 115.366 196.109 115.366C193.389 115.384 190.669 115.291 187.964 115.088L187.965 90.5083ZM192.465 112.608C193.962 112.735 195.463 112.785 196.965 112.759C206.565 112.776 211.73 108.923 211.73 102.169C211.783 96.2693 207.153 92.5443 197.71 92.5443C195.955 92.529 194.201 92.6386 192.462 92.8723L192.465 112.608Z" fill="#00B6B3"/>
<path fill-rule="evenodd" clip-rule="evenodd" d="M217.056 88.6215L221.325 76.4215C223.053 71.4865 210.253 59.7625 195.137 59.0285C178.537 58.2215 160.29 63.4395 155.463 65.9285C160.21 64.5595 179.268 61.7015 194.684 63.3625C207.456 64.7365 217.955 71.6265 217.696 76.5255L217.056 88.6215Z" fill="#00B6B3"/>
<path fill-rule="evenodd" clip-rule="evenodd" d="M165.39 67.4283C136.071 75.4903 122.977 59.7473 97.713 58.4383C90.613 58.0713 91.806 50.1603 92.802 47.0913C78.527 55.7023 68.513 70.2573 74.015 84.5533C75.691 88.9103 82.8401 88.4063 87.4651 89.0533C85.0461 87.6253 81.5831 87.2203 80.2051 84.7713C76.7051 78.5473 75.583 64.6123 93.869 63.5793C127.334 61.6843 136.355 81.3413 165.39 67.4283Z" fill="#00B6B3"/>
<path fill-rule="evenodd" clip-rule="evenodd" d="M168.382 58.2234C154.194 42.0234 130.982 41.6704 104.334 55.8684L112.661 58.6514C128.315 52.2834 153.863 45.8984 168.382 58.2234Z" fill="#00B6B3"/>
<path fill-rule="evenodd" clip-rule="evenodd" d="M87.8391 69.5264C78.9281 72.0624 80.4661 87.4374 88.0391 83.5214C113.908 70.1374 160.946 98.4344 212.414 83.9154C144.671 90.5514 116.709 61.3084 87.8391 69.5264Z" fill="#00B6B3"/>
<path d="M148.13 224.104L142.663 229.571H130.413V242.986H126.013V207.552H142.667L148.134 213.019L148.13 224.104ZM130.413 211.904V225.571H140.892L143.778 222.685V214.785L140.892 211.899L130.413 211.904Z" fill="url(#paint3_linear_176_58)"/>
<path d="M171.522 242.987H166.966L164.638 234.077H153.601L151.324 242.987H147.274L156.74 207.552H162.309L171.522 242.987ZM154.464 230.841H163.779L159.07 212.971L154.464 230.841Z" fill="url(#paint4_linear_176_58)"/>
<path d="M196.883 212.564V222.841L192.074 227.649H189.442L196.226 242.988H191.67L184.988 227.649H179.674V242.988H175.32V207.552H191.92L196.883 212.564ZM179.673 211.957V223.802H189.997L192.527 221.27V214.488L189.997 211.958L179.673 211.957Z" fill="url(#paint5_linear_176_58)"/>
<path d="M214.195 220.359L224.622 242.987H220.117L211.46 224.004L206.5 230.078V242.987H201.995V207.552H206.5V223.6L219.611 207.552H224.521L214.195 220.359Z" fill="url(#paint6_linear_176_58)"/>
<path d="M233.935 242.987H229.535V207.552H233.935V242.987Z" fill="url(#paint7_linear_176_58)"/>
<path d="M263.043 242.987H258.743L243.912 213.272V242.987H240.065V207.552H245.834L259.199 234.583V207.552H263.046L263.043 242.987Z" fill="url(#paint8_linear_176_58)"/>
<path d="M291.441 218.841H287.041V214.487L284.51 211.906H275.904L272.665 215.145V235.245L276.057 238.635H283.346L287.04 234.889V227.549H280.504V223.955H291.438V242.989H287.238V238.989L283.238 242.989H274.479L268.303 236.762V213.474L274.227 207.551H286.427L291.439 212.563L291.441 218.841Z" fill="url(#paint9_linear_176_58)"/>
<path d="M28.1281 240.963C24.8702 242.152 21.431 242.767 17.9631 242.78C12.9501 242.78 8.81509 241.512 5.59809 238.41C2.74909 235.668 0.993058 231.28 0.998058 226.134C1.01306 216.272 7.79806 209.054 18.8731 209.054C21.7041 208.992 24.5181 209.508 27.1431 210.57L26.0771 214.053C23.7795 213.044 21.2854 212.561 18.7771 212.638C10.755 212.638 5.49604 217.63 5.49604 225.911C5.49604 234.289 10.522 239.251 18.259 239.251C20.1921 239.358 22.1258 239.054 23.9331 238.36V228.51H17.2401V225.094H28.1281V240.963Z" fill="#00B6B3"/>
<path d="M60.4381 225.587C60.4381 236.931 53.5261 242.987 45.0971 242.987C36.3271 242.987 30.2351 236.198 30.2351 226.206C30.2351 215.73 36.7191 208.844 45.5461 208.844C54.5751 208.844 60.4381 215.761 60.4381 225.587ZM34.7521 226.109C34.7521 233.183 38.5941 239.515 45.3291 239.515C52.1121 239.515 55.9221 233.286 55.9221 225.774C55.9221 219.191 52.4881 212.319 45.3831 212.319C38.2781 212.319 34.7521 218.875 34.7521 226.107V226.109Z" fill="#00B6B3"/>
<path d="M91.7811 225.587C91.7811 236.931 84.8691 242.987 76.4401 242.987C67.6711 242.987 61.5781 236.198 61.5781 226.206C61.5781 215.73 68.0621 208.844 76.8891 208.844C85.9191 208.844 91.7811 215.761 91.7811 225.587ZM66.0951 226.109C66.0951 233.183 69.9371 239.515 76.6721 239.515C83.4551 239.515 87.2651 233.286 87.2651 225.774C87.2651 219.191 83.8311 212.319 76.7261 212.319C69.6211 212.319 66.0951 218.875 66.0951 226.107V226.109Z" fill="#00B6B3"/>
<path d="M94.849 209.838C97.8542 209.359 100.893 209.121 103.936 209.126C110.053 209.126 114.436 210.576 117.336 213.279C120.292 215.957 122.018 219.786 122.018 225.11C122.018 230.532 120.324 234.918 117.261 237.972C114.137 241.05 109.025 242.738 102.621 242.738C100.027 242.762 97.4334 242.639 94.853 242.37L94.849 209.838ZM99.138 239.088C100.563 239.256 101.998 239.323 103.432 239.288C112.585 239.31 117.514 234.212 117.514 225.272C117.565 217.462 113.149 212.535 104.143 212.535C102.464 212.516 100.788 212.661 99.138 212.97V239.088Z" fill="#00B6B3"/>
<path d="M208.005 115.559C211.558 115.559 214.945 115.508 218.328 115.559C223.615 115.68 228.833 114.353 233.414 111.721C237.927 109.17 242.529 106.768 247.072 104.262C247.329 104.091 247.632 104 247.941 104C248.25 104 248.552 104.091 248.81 104.262C253.943 107.076 259.09 109.865 264.251 112.63C268.078 114.669 272.212 115.535 276.532 115.554C279.921 115.57 283.309 115.554 286.701 115.554H287.938V116.698C287.938 128.198 288.1 139.701 287.901 151.196C287.605 168.172 279.638 180.38 264.248 187.702C259.138 190.128 253.971 192.403 248.842 194.778C248.567 194.924 248.26 195 247.949 195C247.638 195 247.331 194.924 247.056 194.778C241.026 191.961 234.837 189.439 228.971 186.319C217.449 180.19 210.625 170.507 208.489 157.642C208.167 155.563 208.012 153.461 208.027 151.357C207.984 139.79 208.005 128.222 208.005 116.658V115.559ZM247.96 122.6C239.912 122.6 233.245 129.179 233.237 137.155C233.237 145.265 239.789 151.877 247.871 151.896C255.953 151.915 262.642 145.332 262.645 137.287C262.646 133.4 261.101 129.672 258.348 126.919C255.595 124.166 251.86 122.613 247.96 122.6ZM234.781 169.754C235.114 165.406 238.57 163.158 242 163.297C246.185 163.469 250.383 163.329 254.576 163.34C256.011 163.348 257.403 163.831 258.533 164.713C259.662 165.595 260.465 166.826 260.816 168.212C260.945 168.719 261.021 169.239 261.115 169.729H267.462C267.476 169.483 267.492 169.317 267.489 169.153C267.446 163.056 261.841 157.133 255.706 156.926C250.781 156.76 245.846 156.774 240.913 156.881C234.996 157.01 230.154 160.987 228.707 166.698C228.463 167.671 228.414 168.692 228.269 169.754H234.781Z" fill="#D1C900"/>
<path d="M248.519 123C252.365 123.013 256.05 124.551 258.764 127.277C261.479 130.003 263.002 133.694 263 137.541C263 145.499 256.428 152.026 248.431 152C240.434 151.973 233.989 145.432 234 137.411C234.008 129.512 240.583 122.989 248.519 123ZM248.497 145.629C250.635 145.616 252.682 144.765 254.199 143.26C255.717 141.755 256.585 139.716 256.616 137.578C256.609 135.424 255.754 133.358 254.236 131.829C252.718 130.301 250.66 129.431 248.505 129.408C246.368 129.428 244.324 130.282 242.807 131.788C241.29 133.294 240.422 135.332 240.387 137.469C240.389 139.624 241.243 141.691 242.762 143.219C244.282 144.747 246.343 145.613 248.497 145.629Z" fill="white"/>
<path d="M235.47 170H229C229.144 168.924 229.193 167.91 229.436 166.934C230.867 161.201 235.7 157.21 241.573 157.08C246.473 156.973 251.38 156.959 256.283 157.126C262.392 157.333 267.957 163.278 268 169.397C268 169.562 268 169.728 267.973 169.976H261.661C261.568 169.484 261.493 168.962 261.365 168.453C261.016 167.062 260.217 165.826 259.094 164.941C257.971 164.055 256.587 163.571 255.16 163.563C250.99 163.563 246.815 163.692 242.653 163.52C239.238 163.38 235.801 165.637 235.47 170Z" fill="white"/>
<path d="M247.996 146C245.872 145.984 243.84 145.076 242.342 143.475C240.845 141.873 240.003 139.707 240 137.449C240.035 135.209 240.891 133.072 242.386 131.494C243.881 129.916 245.897 129.021 248.004 129C250.128 129.023 252.158 129.935 253.654 131.537C255.15 133.14 255.993 135.304 256 137.563C255.969 139.803 255.114 141.941 253.618 143.518C252.121 145.095 250.103 145.986 247.996 146Z" fill="#D1C900"/>
<defs>
<radialGradient id="paint0_radial_176_58" cx="0" cy="0" r="1" gradientUnits="userSpaceOnUse" gradientTransform="translate(-523.14 49.8452) scale(75.2339 75.1666)">
<stop stop-color="white"/>
<stop offset="0.497" stop-color="#00C9B5"/>
<stop offset="1" stop-color="#00B6B3"/>
</radialGradient>
<radialGradient id="paint1_radial_176_58" cx="0" cy="0" r="1" gradientUnits="userSpaceOnUse" gradientTransform="translate(-319.58 218.574) scale(161.516 161.628)">
<stop stop-color="white"/>
<stop offset="0.497" stop-color="#00C9B5"/>
<stop offset="1" stop-color="#00B6B3"/>
</radialGradient>
<radialGradient id="paint2_radial_176_58" cx="0" cy="0" r="1" gradientUnits="userSpaceOnUse" gradientTransform="translate(864.843 205.756) scale(124.771 124.779)">
<stop stop-color="white"/>
<stop offset="0.497" stop-color="#00C9B5"/>
<stop offset="1" stop-color="#00B6B3"/>
</radialGradient>
<linearGradient id="paint3_linear_176_58" x1="137.074" y1="185.087" x2="137.074" y2="265.629" gradientUnits="userSpaceOnUse">
<stop stop-color="#9FA1A8"/>
<stop offset="1" stop-color="#383539"/>
</linearGradient>
<linearGradient id="paint4_linear_176_58" x1="159.398" y1="185.086" x2="159.398" y2="265.63" gradientUnits="userSpaceOnUse">
<stop stop-color="#9FA1A8"/>
<stop offset="1" stop-color="#383539"/>
</linearGradient>
<linearGradient id="paint5_linear_176_58" x1="186.102" y1="185.086" x2="186.102" y2="265.632" gradientUnits="userSpaceOnUse">
<stop stop-color="#9FA1A8"/>
<stop offset="1" stop-color="#383539"/>
</linearGradient>
<linearGradient id="paint6_linear_176_58" x1="213.309" y1="185.086" x2="213.309" y2="265.63" gradientUnits="userSpaceOnUse">
<stop stop-color="#9FA1A8"/>
<stop offset="1" stop-color="#383539"/>
</linearGradient>
<linearGradient id="paint7_linear_176_58" x1="231.735" y1="185.086" x2="231.735" y2="265.63" gradientUnits="userSpaceOnUse">
<stop stop-color="#9FA1A8"/>
<stop offset="1" stop-color="#383539"/>
</linearGradient>
<linearGradient id="paint8_linear_176_58" x1="251.555" y1="185.086" x2="251.555" y2="265.63" gradientUnits="userSpaceOnUse">
<stop stop-color="#9FA1A8"/>
<stop offset="1" stop-color="#383539"/>
</linearGradient>
<linearGradient id="paint9_linear_176_58" x1="279.872" y1="185.084" x2="279.872" y2="265.634" gradientUnits="userSpaceOnUse">
<stop stop-color="#9FA1A8"/>
<stop offset="1" stop-color="#383539"/>
</linearGradient>
</defs>
</svg>
