<svg width="291" height="243" viewBox="0 0 291 243" fill="none" xmlns="http://www.w3.org/2000/svg">
<path d="M205.111 63.6645C145.767 55.4981 96.0566 80.0347 96.0566 80.0347C180.827 51.8888 217.908 81.8161 217.908 112.967C217.908 124.694 213.83 135.35 206.917 144.87H243.627C259.892 114.816 256.365 70.717 205.111 63.6645Z" fill="url(#paint0_radial_186_71)"/>
<path d="M206.916 144.87C191.507 166.092 161.986 181.649 131.97 190.747L130.168 218.895C170.484 210.192 222.667 181.654 242.849 146.304C243.117 145.833 243.367 145.348 243.625 144.87H206.916Z" fill="url(#paint1_radial_186_71)"/>
<path d="M38.1886 179.913C40.3499 198.757 54.6852 214.144 80.0506 219.652L84.1861 195.751C74.2541 194.205 65.7119 190.553 59.5231 184.362C47.0358 171.887 49.2736 157.104 55.2305 144.869H45.5878C39.2011 155.127 36.6924 166.887 38.1886 179.913Z" fill="url(#paint2_radial_186_71)"/>
<path d="M108.1 156.789C105.207 157.542 102.23 157.926 99.2405 157.931C94.8713 157.931 91.2669 157.133 88.4639 155.187C85.739 153.109 84.2942 150.331 84.4555 147.476C84.4688 141.283 90.3791 136.753 100.035 136.753C102.473 136.71 104.903 137.032 107.246 137.708L106.316 139.895C104.255 139.252 102.102 138.951 99.9437 139.004C92.9519 139.004 88.3683 142.14 88.3683 147.341C88.3683 152.603 92.7499 155.719 99.4923 155.719C101.16 155.789 102.828 155.601 104.438 155.162V148.974H98.6012V146.829H108.092L108.1 156.789Z" fill="#00B6B3"/>
<path d="M136.262 147.129C136.262 154.254 130.237 158.059 122.891 158.059C115.247 158.059 109.937 153.796 109.937 147.52C109.937 140.939 115.59 136.614 123.282 136.614C131.15 136.615 136.262 140.959 136.262 147.129ZM113.874 147.462C113.874 151.905 117.222 155.881 123.093 155.881C129.006 155.881 132.326 151.97 132.326 147.251C132.326 143.117 129.333 138.8 123.143 138.8C116.952 138.8 113.873 142.919 113.873 147.461L113.874 147.462Z" fill="#00B6B3"/>
<path d="M163.58 147.129C163.58 154.254 157.555 158.059 150.208 158.059C142.565 158.059 137.255 153.796 137.255 147.52C137.255 140.939 142.908 136.614 150.601 136.614C158.469 136.615 163.58 140.959 163.58 147.129ZM141.192 147.462C141.192 151.905 144.541 155.881 150.411 155.881C156.323 155.881 159.643 151.97 159.643 147.251C159.643 143.117 156.65 138.8 150.461 138.8C144.271 138.8 141.192 142.92 141.192 147.462Z" fill="#00B6B3"/>
<path d="M166.253 137.237C168.882 136.935 171.526 136.786 174.173 136.79C179.505 136.79 183.327 137.704 185.848 139.398C187.126 140.164 188.177 141.256 188.894 142.561C189.611 143.867 189.968 145.34 189.928 146.829C189.96 148.414 189.597 149.981 188.874 151.392C188.15 152.802 187.087 154.01 185.781 154.908C183.059 156.841 178.603 157.901 173.022 157.901C170.761 157.916 168.5 157.838 166.252 157.67L166.253 137.237ZM169.993 155.608C171.237 155.713 172.486 155.755 173.734 155.734C181.714 155.748 186.008 152.545 186.008 146.93C186.052 142.026 182.203 138.929 174.353 138.929C172.894 138.917 171.437 139.008 169.991 139.202L169.993 155.608Z" fill="#00B6B3"/>
<path fill-rule="evenodd" clip-rule="evenodd" d="M190.435 135.668L193.984 125.527C195.42 121.425 184.78 111.679 172.214 111.069C158.415 110.398 143.247 114.735 139.234 116.804C143.18 115.666 159.023 113.291 171.838 114.671C182.455 115.813 191.182 121.541 190.967 125.613L190.435 135.668Z" fill="#00B6B3"/>
<path fill-rule="evenodd" clip-rule="evenodd" d="M147.486 118.051C123.114 124.753 112.23 111.666 91.2286 110.578C85.3266 110.273 86.3182 103.697 87.1462 101.146C75.2798 108.304 66.9555 120.403 71.5291 132.287C72.9223 135.909 78.8652 135.49 82.7098 136.027C80.6989 134.84 77.8202 134.504 76.6747 132.468C73.7653 127.294 72.8326 115.71 88.0332 114.852C115.852 113.276 123.351 129.617 147.486 118.051Z" fill="#00B6B3"/>
<path fill-rule="evenodd" clip-rule="evenodd" d="M149.974 110.399C138.18 96.9328 118.884 96.6394 96.7325 108.442L103.654 110.755C116.667 105.462 137.904 100.154 149.974 110.399Z" fill="#00B6B3"/>
<path fill-rule="evenodd" clip-rule="evenodd" d="M83.0207 119.795C75.6132 121.903 76.8917 134.684 83.1869 131.429C104.691 120.303 143.792 143.826 186.576 131.756C130.263 137.273 107.019 112.964 83.0207 119.795Z" fill="#00B6B3"/>
<defs>
<radialGradient id="paint0_radial_186_71" cx="0" cy="0" r="1" gradientUnits="userSpaceOnUse" gradientTransform="translate(-424.868 103.435) scale(62.5397 62.4837)">
<stop stop-color="white"/>
<stop offset="0.497" stop-color="#00C9B5"/>
<stop offset="1" stop-color="#00B6B3"/>
</radialGradient>
<radialGradient id="paint1_radial_186_71" cx="0" cy="0" r="1" gradientUnits="userSpaceOnUse" gradientTransform="translate(-255.655 243.694) scale(134.263 134.356)">
<stop stop-color="white"/>
<stop offset="0.497" stop-color="#00C9B5"/>
<stop offset="1" stop-color="#00B6B3"/>
</radialGradient>
<radialGradient id="paint2_radial_186_71" cx="0" cy="0" r="1" gradientUnits="userSpaceOnUse" gradientTransform="translate(728.921 233.039) scale(103.718 103.725)">
<stop stop-color="white"/>
<stop offset="0.497" stop-color="#00C9B5"/>
<stop offset="1" stop-color="#00B6B3"/>
</radialGradient>
</defs>
</svg>
