<svg width="140" height="42" viewBox="0 0 140 42" fill="none" xmlns="http://www.w3.org/2000/svg">
<path d="M24.339 12.0877L8.33463 25.2691V39.4957C8.33463 39.864 8.48096 40.2173 8.74143 40.4778C9.0019 40.7382 9.35517 40.8845 9.72352 40.8845L19.451 40.8594C19.8181 40.8575 20.1696 40.7104 20.4286 40.4501C20.6875 40.1899 20.8329 39.8376 20.8329 39.4705V31.1623C20.8329 30.794 20.9792 30.4407 21.2397 30.1802C21.5002 29.9198 21.8534 29.7734 22.2218 29.7734H27.7773C28.1457 29.7734 28.499 29.9198 28.7594 30.1802C29.0199 30.4407 29.1662 30.794 29.1662 31.1623V39.4644C29.1657 39.6472 29.2012 39.8282 29.2707 39.9972C29.3402 40.1663 29.4425 40.3199 29.5715 40.4493C29.7005 40.5787 29.8538 40.6814 30.0226 40.7515C30.1914 40.8216 30.3724 40.8576 30.5551 40.8576L40.2791 40.8845C40.6474 40.8845 41.0007 40.7382 41.2612 40.4778C41.5216 40.2173 41.668 39.864 41.668 39.4957V25.2595L25.6671 12.0877C25.479 11.936 25.2446 11.8534 25.003 11.8534C24.7614 11.8534 24.5271 11.936 24.339 12.0877ZM49.6194 21.0469L42.3624 15.0651V3.04167C42.3624 2.7654 42.2527 2.50045 42.0573 2.3051C41.862 2.10975 41.597 2 41.3207 2H36.4596C36.1834 2 35.9184 2.10975 35.7231 2.3051C35.5277 2.50045 35.418 2.7654 35.418 3.04167V9.34462L27.6463 2.95052C26.9004 2.33679 25.9646 2.00123 24.9987 2.00123C24.0328 2.00123 23.0969 2.33679 22.3511 2.95052L0.378037 21.0469C0.272557 21.1341 0.18529 21.2412 0.12122 21.3621C0.0571509 21.483 0.0175354 21.6154 0.00463729 21.7516C-0.00826081 21.8878 0.00581134 22.0253 0.0460497 22.1561C0.086288 22.2869 0.151904 22.4085 0.239148 22.5139L2.45269 25.2049C2.5397 25.3107 2.64671 25.3983 2.76762 25.4626C2.88852 25.527 3.02094 25.5669 3.15728 25.5801C3.29363 25.5932 3.43123 25.5793 3.5622 25.5392C3.69318 25.4991 3.81496 25.4336 3.92057 25.3464L24.339 8.52865C24.5271 8.37702 24.7614 8.29433 25.003 8.29433C25.2446 8.29433 25.479 8.37702 25.6671 8.52865L46.0864 25.3464C46.1918 25.4336 46.3134 25.4992 46.4442 25.5395C46.575 25.5797 46.7124 25.5938 46.8487 25.5809C46.9849 25.568 47.1173 25.5284 47.2382 25.4643C47.3591 25.4002 47.4662 25.3129 47.5534 25.2075L49.7669 22.5165C49.8541 22.4105 49.9194 22.2882 49.9592 22.1569C49.9989 22.0255 50.0124 21.8876 49.9986 21.751C49.9849 21.6144 49.9444 21.4819 49.8793 21.3611C49.8142 21.2402 49.7258 21.1335 49.6194 21.0469Z" fill="white"/>
<path d="M70.541 33.0275L67.9435 35.625H62.1232V41.9988H60.0327V25.1633H67.9454L70.5429 27.7608L70.541 33.0275ZM62.1232 27.231V33.7245H67.102L68.4732 32.3533V28.5998L67.102 27.2286L62.1232 27.231Z" fill="url(#paint0_linear_181_70)"/>
<path d="M81.655 41.999H79.4904L78.3843 37.7657H73.1404L72.0585 41.999H70.1343L74.6318 25.163H77.2778L81.655 41.999ZM73.5504 36.2282H77.9762L75.7388 27.7377L73.5504 36.2282Z" fill="url(#paint1_linear_181_70)"/>
<path d="M93.7046 27.5443V32.4272L91.4198 34.7116H90.1693L93.3925 41.9995H91.2278L88.053 34.7116H85.5282V41.9995H83.4595V25.163H91.3466L93.7046 27.5443ZM85.5278 27.2559V32.8838H90.4329L91.635 31.6808V28.4585L90.4329 27.2564L85.5278 27.2559Z" fill="url(#paint2_linear_181_70)"/>
<path d="M101.93 31.2479L106.884 41.999H104.744L100.631 32.9797L98.2739 35.8656V41.999H96.1335V25.163H98.2739V32.7878L104.503 25.163H106.836L101.93 31.2479Z" fill="url(#paint3_linear_181_70)"/>
<path d="M111.309 41.999H109.218V25.163H111.309V41.999Z" fill="url(#paint4_linear_181_70)"/>
<path d="M125.139 41.999H123.096L116.049 27.8807V41.999H114.221V25.163H116.962L123.312 38.0061V25.163H125.14L125.139 41.999Z" fill="url(#paint5_linear_181_70)"/>
<path d="M138.631 30.5267H136.541V28.4581L135.338 27.2318H131.249L129.71 28.7707V38.3206L131.322 39.9313H134.785L136.54 38.1515V34.6641H133.435V32.9565H138.63V42H136.634V40.0995L134.734 42H130.572L127.638 39.0414V27.9768L130.453 25.1626H136.249L138.63 27.5439L138.631 30.5267Z" fill="url(#paint6_linear_181_70)"/>
<path d="M76.3826 22.7315C74.1751 23.5369 71.8448 23.9534 69.4951 23.9627C66.0984 23.9627 63.2966 23.1035 61.1169 21.0017C59.1865 19.1438 57.9966 16.1706 58 12.6838C58.0102 6.00155 62.6075 1.11081 70.1116 1.11081C72.0299 1.06875 73.9366 1.41826 75.7152 2.13801L74.9929 4.498C73.4361 3.81406 71.7462 3.48651 70.0466 3.53925C64.6111 3.53925 61.0477 6.92168 61.0477 12.5327C61.0477 18.2094 64.4532 21.5715 69.6956 21.5715C71.0054 21.6438 72.3156 21.4381 73.5402 20.9678V14.2937H69.0052V11.9791H76.3826V22.7315Z" fill="#47E7CE"/>
<path d="M98.275 12.3131C98.275 19.9995 93.5916 24.1029 87.8803 24.1029C81.938 24.1029 77.8102 19.5029 77.8102 12.7325C77.8102 5.63428 82.2036 0.968506 88.1846 0.968506C94.3024 0.968506 98.275 5.65529 98.275 12.3131ZM80.8708 12.6668C80.8708 17.46 83.474 21.7504 88.0375 21.7504C92.6335 21.7504 95.2151 17.5298 95.2151 12.4398C95.2151 7.97936 92.8883 3.32308 88.0741 3.32308C83.2599 3.32308 80.8708 7.76525 80.8708 12.6655V12.6668Z" fill="#47E7CE"/>
<path d="M119.512 12.3131C119.512 19.9995 114.829 24.1029 109.118 24.1029C103.176 24.1029 99.0475 19.5029 99.0475 12.7325C99.0475 5.63428 103.441 0.968506 109.422 0.968506C115.54 0.968506 119.512 5.65529 119.512 12.3131ZM102.108 12.6668C102.108 17.46 104.711 21.7504 109.275 21.7504C113.871 21.7504 116.452 17.5298 116.452 12.4398C116.452 7.97936 114.126 3.32308 109.311 3.32308C104.497 3.32308 102.108 7.76525 102.108 12.6655V12.6668Z" fill="#47E7CE"/>
<path d="M121.591 1.64198C123.627 1.31719 125.686 1.15586 127.748 1.15955C131.893 1.15955 134.863 2.14204 136.828 3.97352C138.831 5.78806 140 8.38249 140 11.9899C140 15.6637 138.852 18.6355 136.777 20.7049C134.66 22.7904 131.196 23.9342 126.857 23.9342C125.099 23.9502 123.342 23.8669 121.594 23.6848L121.591 1.64198ZM124.497 21.461C125.463 21.5747 126.435 21.62 127.407 21.5965C133.608 21.6114 136.948 18.1572 136.948 12.0997C136.983 6.80782 133.991 3.46939 127.888 3.46939C126.751 3.4561 125.615 3.55485 124.497 3.76416V21.461Z" fill="#47E7CE"/>
<defs>
<linearGradient id="paint0_linear_181_70" x1="65.2878" y1="14.4896" x2="65.2878" y2="52.7567" gradientUnits="userSpaceOnUse">
<stop stop-color="#9FA1A8"/>
<stop offset="1" stop-color="#383539"/>
</linearGradient>
<linearGradient id="paint1_linear_181_70" x1="75.8947" y1="14.489" x2="75.8947" y2="52.7572" gradientUnits="userSpaceOnUse">
<stop stop-color="#9FA1A8"/>
<stop offset="1" stop-color="#383539"/>
</linearGradient>
<linearGradient id="paint2_linear_181_70" x1="88.5821" y1="14.4887" x2="88.5821" y2="52.758" gradientUnits="userSpaceOnUse">
<stop stop-color="#9FA1A8"/>
<stop offset="1" stop-color="#383539"/>
</linearGradient>
<linearGradient id="paint3_linear_181_70" x1="101.509" y1="14.489" x2="101.509" y2="52.7572" gradientUnits="userSpaceOnUse">
<stop stop-color="#9FA1A8"/>
<stop offset="1" stop-color="#383539"/>
</linearGradient>
<linearGradient id="paint4_linear_181_70" x1="110.264" y1="14.489" x2="110.264" y2="52.7572" gradientUnits="userSpaceOnUse">
<stop stop-color="#9FA1A8"/>
<stop offset="1" stop-color="#383539"/>
</linearGradient>
<linearGradient id="paint5_linear_181_70" x1="119.681" y1="14.489" x2="119.681" y2="52.7572" gradientUnits="userSpaceOnUse">
<stop stop-color="#9FA1A8"/>
<stop offset="1" stop-color="#383539"/>
</linearGradient>
<linearGradient id="paint6_linear_181_70" x1="133.135" y1="14.4877" x2="133.135" y2="52.7591" gradientUnits="userSpaceOnUse">
<stop stop-color="#9FA1A8"/>
<stop offset="1" stop-color="#383539"/>
</linearGradient>
</defs>
</svg>
