<svg width="291" height="243" viewBox="0 0 291 243" fill="none" xmlns="http://www.w3.org/2000/svg">
<path d="M217.307 28.0024C145.918 18.1784 86.1172 47.6954 86.1172 47.6954C188.094 13.8364 232.702 49.8384 232.702 87.3124C232.702 101.419 227.796 114.238 219.48 125.69H263.641C283.207 89.5364 278.964 36.4864 217.307 28.0024Z" fill="white"/>
<path d="M219.478 125.69C200.942 151.22 165.429 169.935 129.32 180.88L127.152 214.741C175.652 204.271 238.427 169.941 262.705 127.415C263.028 126.849 263.328 126.265 263.639 125.69H219.478Z" fill="white"/>
<path d="M16.5034 167.846C19.1034 190.515 36.3484 209.026 66.8624 215.652L71.8374 186.899C59.8894 185.039 49.6133 180.646 42.1683 173.199C27.1463 158.191 29.8384 140.408 37.0044 125.689H25.4044C17.7214 138.03 14.7034 152.177 16.5034 167.846Z" fill="white"/>
<path d="M100.605 140.029C97.125 140.935 93.5438 141.397 89.9474 141.402C84.6914 141.402 80.3554 140.443 76.9834 138.102C73.7054 135.602 71.9674 132.26 72.1614 128.826C72.1774 121.375 79.2873 115.926 90.9033 115.926C93.8358 115.874 96.7596 116.262 99.5774 117.075L98.4594 119.706C95.9799 118.932 93.3901 118.57 90.7933 118.634C82.3823 118.634 76.8684 122.406 76.8684 128.663C76.8684 134.993 82.1394 138.742 90.2504 138.742C92.2564 138.826 94.2634 138.6 96.2003 138.071V130.628H89.1784V128.047H100.595L100.605 140.029Z" fill="white"/>
<path d="M134.483 128.408C134.483 136.979 127.235 141.557 118.398 141.557C109.203 141.557 102.815 136.428 102.815 128.878C102.815 120.962 109.615 115.759 118.869 115.759C128.334 115.76 134.483 120.986 134.483 128.408ZM107.551 128.808C107.551 134.153 111.579 138.937 118.641 138.937C125.754 138.937 129.748 134.231 129.748 128.555C129.748 123.581 126.148 118.388 118.701 118.388C111.254 118.388 107.55 123.343 107.55 128.807L107.551 128.808Z" fill="white"/>
<path d="M167.346 128.408C167.346 136.979 160.098 141.557 151.26 141.557C142.065 141.557 135.678 136.428 135.678 128.878C135.678 120.962 142.478 115.759 151.732 115.759C161.198 115.76 167.346 120.986 167.346 128.408ZM140.414 128.808C140.414 134.153 144.442 138.937 151.504 138.937C158.616 138.937 162.61 134.231 162.61 128.555C162.61 123.581 159.01 118.388 151.564 118.388C144.118 118.388 140.414 123.344 140.414 128.808Z" fill="white"/>
<path d="M170.562 116.508C173.725 116.146 176.906 115.966 180.089 115.97C186.503 115.97 191.102 117.07 194.135 119.108C195.672 120.03 196.936 121.343 197.798 122.913C198.661 124.484 199.09 126.256 199.042 128.047C199.081 129.954 198.645 131.84 197.774 133.536C196.904 135.232 195.626 136.686 194.054 137.766C190.779 140.091 185.419 141.366 178.705 141.366C175.985 141.384 173.266 141.291 170.561 141.088L170.562 116.508ZM175.062 138.608C176.558 138.735 178.06 138.785 179.562 138.759C189.162 138.776 194.327 134.923 194.327 128.169C194.38 122.269 189.75 118.544 180.307 118.544C178.552 118.529 176.798 118.639 175.058 118.872L175.062 138.608Z" fill="white"/>
<path fill-rule="evenodd" clip-rule="evenodd" d="M199.652 114.621L203.921 102.421C205.649 97.4865 192.849 85.7625 177.733 85.0285C161.133 84.2215 142.886 89.4395 138.059 91.9285C142.806 90.5595 161.864 87.7015 177.28 89.3625C190.052 90.7365 200.551 97.6265 200.292 102.525L199.652 114.621Z" fill="white"/>
<path fill-rule="evenodd" clip-rule="evenodd" d="M147.986 93.4283C118.667 101.49 105.573 85.7473 80.3093 84.4383C73.2093 84.0713 74.4023 76.1603 75.3983 73.0913C61.1233 81.7023 51.1093 96.2573 56.6113 110.553C58.2873 114.91 65.4364 114.406 70.0614 115.053C67.6424 113.625 64.1794 113.22 62.8014 110.771C59.3014 104.547 58.1793 90.6123 76.4653 89.5793C109.93 87.6843 118.951 107.341 147.986 93.4283Z" fill="white"/>
<path fill-rule="evenodd" clip-rule="evenodd" d="M150.978 84.2234C136.79 68.0234 113.578 67.6704 86.9304 81.8684L95.2573 84.6514C110.911 78.2834 136.459 71.8984 150.978 84.2234Z" fill="white"/>
<path fill-rule="evenodd" clip-rule="evenodd" d="M70.4355 95.5264C61.5245 98.0624 63.0625 113.437 70.6355 109.521C96.5045 96.1374 143.542 124.434 195.01 109.915C127.267 116.551 99.3055 87.3084 70.4355 95.5264Z" fill="white"/>
</svg>
