<svg xmlns="http://www.w3.org/2000/svg" xmlns:xlink="http://www.w3.org/1999/xlink" width="290.441" height="242.988" viewBox="0 0 290.441 242.988">
  <defs>
    <radialGradient id="radial-gradient" cx="0.5" cy="0.5" r="0.754" gradientTransform="translate(0.235) scale(0.531 1)" gradientUnits="objectBoundingBox">
      <stop offset="0" stop-color="#fff"/>
      <stop offset="0.497" stop-color="#00c9b5"/>
      <stop offset="1" stop-color="#00b6b3"/>
    </radialGradient>
    <radialGradient id="radial-gradient-2" cx="0.586" cy="1.335" r="1.815" gradientTransform="translate(0.174) scale(0.652 1)" xlink:href="#radial-gradient"/>
    <radialGradient id="radial-gradient-3" cx="-0.079" cy="1.179" r="1.387" gradientTransform="translate(-0.306) scale(1.611 1)" xlink:href="#radial-gradient"/>
    <linearGradient id="linear-gradient" x1="0.5" y1="-0.634" x2="0.5" y2="1.639" gradientUnits="objectBoundingBox">
      <stop offset="0" stop-color="#9fa1a8"/>
      <stop offset="1" stop-color="#383539"/>
    </linearGradient>
    <linearGradient id="linear-gradient-5" x1="0.5" y1="-0.634" x2="0.5" y2="1.639" xlink:href="#linear-gradient"/>
  </defs>
  <g id="グループ_60" data-name="グループ 60" transform="translate(-1340.518 311.108)">
    <path id="パス_141" data-name="パス 141" d="M1574.229-309.106c-71.389-9.824-131.19,19.693-131.19,19.693,101.977-33.859,146.585,2.143,146.585,39.617,0,14.107-4.906,26.926-13.222,38.378h44.161C1640.129-247.572,1635.886-300.622,1574.229-309.106Z" fill="url(#radial-gradient)"/>
    <path id="パス_142" data-name="パス 142" d="M1576.4-211.418c-18.536,25.53-54.049,44.245-90.158,55.19l-2.168,33.861c48.5-10.47,111.275-44.8,135.553-87.326.323-.566.623-1.15.934-1.725Z" fill="url(#radial-gradient-2)"/>
    <g id="グループ_53" data-name="グループ 53">
      <path id="パス_143" data-name="パス 143" d="M1373.425-169.262c2.6,22.669,19.845,41.18,50.359,47.806l4.975-28.753c-11.948-1.86-22.224-6.253-29.669-13.7-15.022-15.008-12.33-32.791-5.164-47.51h-11.6C1374.643-199.078,1371.625-184.931,1373.425-169.262Z" fill="url(#radial-gradient-3)"/>
    </g>
    <g id="Group_35" data-name="Group 35">
      <g id="Path_80" data-name="Path 80">
        <path id="パス_144" data-name="パス 144" d="M1457.527-197.079a42.568,42.568,0,0,1-10.658,1.373c-5.256,0-9.592-.959-12.964-3.3-3.278-2.5-5.016-5.842-4.822-9.276.016-7.451,7.126-12.9,18.742-12.9a29.39,29.39,0,0,1,8.674,1.149l-1.118,2.631a23.738,23.738,0,0,0-7.666-1.072c-8.411,0-13.925,3.772-13.925,10.029,0,6.33,5.271,10.079,13.382,10.079a19.488,19.488,0,0,0,5.95-.671v-7.443H1446.1v-2.581h11.417Z" fill="#00b6b3"/>
      </g>
      <g id="Path_81" data-name="Path 81">
        <path id="パス_145" data-name="パス 145" d="M1491.405-208.7c0,8.571-7.248,13.149-16.085,13.149-9.195,0-15.583-5.129-15.583-12.679,0-7.916,6.8-13.119,16.054-13.119C1485.256-221.348,1491.405-216.122,1491.405-208.7Zm-26.932.4c0,5.345,4.028,10.129,11.09,10.129,7.113,0,11.107-4.706,11.107-10.382,0-4.974-3.6-10.167-11.047-10.167s-11.151,4.955-11.151,10.419Z" fill="#00b6b3"/>
      </g>
      <g id="Path_82" data-name="Path 82">
        <path id="パス_146" data-name="パス 146" d="M1524.268-208.7c0,8.571-7.248,13.149-16.086,13.149-9.195,0-15.582-5.129-15.582-12.679,0-7.916,6.8-13.119,16.054-13.119C1518.12-221.348,1524.268-216.122,1524.268-208.7Zm-26.932.4c0,5.345,4.028,10.129,11.09,10.129,7.112,0,11.106-4.706,11.106-10.382,0-4.974-3.6-10.167-11.046-10.167s-11.15,4.955-11.15,10.419Z" fill="#00b6b3"/>
      </g>
      <g id="Path_83" data-name="Path 83">
        <path id="パス_147" data-name="パス 147" d="M1527.483-220.6a82.631,82.631,0,0,1,9.528-.538c6.414,0,11.012,1.1,14.045,3.138a10.108,10.108,0,0,1,4.908,8.939,11.515,11.515,0,0,1-4.988,9.719c-3.275,2.325-8.635,3.6-15.349,3.6-2.72.018-5.44-.075-8.145-.278Zm4.5,22.1a44.184,44.184,0,0,0,4.5.151c9.6.017,14.765-3.836,14.765-10.59.053-5.9-4.577-9.625-14.02-9.625a37,37,0,0,0-5.248.328Z" fill="#00b6b3"/>
      </g>
    </g>
    <g id="グループ_59" data-name="グループ 59">
      <g id="グループ_57" data-name="グループ 57">
        <g id="グループ_54" data-name="グループ 54">
          <path id="パス_148" data-name="パス 148" d="M1556.574-222.487l4.269-12.2c1.728-4.935-11.072-16.659-26.188-17.393-16.6-.807-34.847,4.411-39.674,6.9,4.747-1.369,23.805-4.227,39.221-2.566,12.772,1.374,23.271,8.264,23.012,13.163Z" fill="#00b6b3" fill-rule="evenodd"/>
        </g>
        <g id="グループ_55" data-name="グループ 55">
          <path id="パス_149" data-name="パス 149" d="M1504.908-243.68c-29.319,8.062-42.413-7.681-67.677-8.99-7.1-.367-5.907-8.278-4.911-11.347-14.275,8.611-24.289,23.166-18.787,37.462,1.676,4.357,8.825,3.853,13.45,4.5-2.419-1.428-5.882-1.833-7.26-4.282-3.5-6.224-4.622-20.159,13.664-21.192C1466.852-249.424,1475.873-229.767,1504.908-243.68Z" fill="#00b6b3" fill-rule="evenodd"/>
        </g>
        <g id="グループ_56" data-name="グループ 56">
          <path id="パス_150" data-name="パス 150" d="M1507.9-252.885c-14.188-16.2-37.4-16.553-64.048-2.355l8.327,2.783C1467.833-258.825,1493.381-265.21,1507.9-252.885Z" fill="#00b6b3" fill-rule="evenodd"/>
        </g>
      </g>
      <g id="グループ_58" data-name="グループ 58">
        <path id="パス_151" data-name="パス 151" d="M1427.357-241.582c-8.911,2.536-7.373,17.911.2,13.995,25.869-13.384,72.907,14.913,124.375.394C1484.189-220.557,1456.227-249.8,1427.357-241.582Z" fill="#00b6b3" fill-rule="evenodd"/>
      </g>
    </g>
    <g id="グループ_61" data-name="グループ 61" transform="translate(1340.496 -104.176)">
      <g id="グループ_9" data-name="グループ 9" transform="translate(125.035 0.62)">
        <path id="パス_21" data-name="パス 21" d="M1112.5,367.163l-5.467,5.467h-12.25v13.415h-4.4V350.611h16.654l5.467,5.467Zm-17.717-12.2v13.667h10.479l2.886-2.886v-7.9l-2.886-2.886Z" transform="translate(-1090.383 -350.611)" fill="url(#linear-gradient)"/>
        <path id="パス_22" data-name="パス 22" d="M1126.721,386.046h-4.556l-2.328-8.91H1108.8l-2.277,8.91h-4.05l9.466-35.435h5.569ZM1109.663,373.9h9.315l-4.709-17.87Z" transform="translate(-1081.212 -350.611)" fill="url(#linear-gradient)"/>
        <path id="パス_23" data-name="パス 23" d="M1139.986,355.623V365.9l-4.809,4.808h-2.632l6.784,15.339h-4.556l-6.682-15.339h-5.314v15.339h-4.354V350.611h16.6Zm-17.21-.607v11.845H1133.1l2.53-2.532v-6.782l-2.53-2.53Z" transform="translate(-1069.116 -350.611)" fill="url(#linear-gradient)"/>
        <path id="パス_24" data-name="パス 24" d="M1145.792,363.418l10.427,22.628h-4.505l-8.657-18.983-4.96,6.074v12.909h-4.505V350.611h4.505v16.048l13.111-16.048h4.91Z" transform="translate(-1057.61 -350.611)" fill="url(#linear-gradient)"/>
        <path id="パス_25" data-name="パス 25" d="M1153.655,386.046h-4.4V350.611h4.4Z" transform="translate(-1045.733 -350.611)" fill="url(#linear-gradient-5)"/>
        <path id="パス_26" data-name="パス 26" d="M1178.221,386.046h-4.3l-14.831-29.715v29.715h-3.847V350.611h5.769l13.365,27.031V350.611h3.847Z" transform="translate(-1041.191 -350.611)" fill="url(#linear-gradient)"/>
        <path id="パス_27" data-name="パス 27" d="M1194.437,361.9h-4.4v-4.354l-2.531-2.581H1178.9l-3.239,3.239v20.1l3.392,3.39h7.289l3.694-3.746v-7.34H1183.5v-3.594h10.934v19.034h-4.2v-4l-4,4h-8.759l-6.176-6.227V356.533l5.924-5.923h12.2l5.012,5.012Z" transform="translate(-1029.009 -350.611)" fill="url(#linear-gradient)"/>
      </g>
      <g id="グループ_35" data-name="グループ 35" transform="translate(0.022 1.912)">
        <path id="パス_80" data-name="パス 80" d="M886.128,526.512a30.005,30.005,0,0,1-10.165,1.817c-5.013,0-9.148-1.268-12.365-4.37-2.849-2.742-4.605-7.13-4.6-12.276.015-9.862,6.8-17.08,17.875-17.08a20.829,20.829,0,0,1,8.27,1.516l-1.066,3.483a16.85,16.85,0,0,0-7.3-1.415c-8.022,0-13.281,4.992-13.281,13.273,0,8.378,5.026,13.34,12.763,13.34a13.718,13.718,0,0,0,5.674-.891v-9.85H875.24v-3.416h10.888Z" transform="translate(-859 -494.393)" fill="#00b6b3"/>
        <path id="パス_81" data-name="パス 81" d="M923.508,511.1c0,11.344-6.912,17.4-15.341,17.4-8.77,0-14.862-6.789-14.862-16.781,0-10.476,6.484-17.362,15.311-17.362C917.645,494.357,923.508,501.274,923.508,511.1Zm-25.686.522c0,7.074,3.842,13.406,10.577,13.406,6.783,0,10.593-6.229,10.593-13.741,0-6.583-3.434-13.455-10.539-13.455S897.822,504.388,897.822,511.62Z" transform="translate(-864.07 -494.357)" fill="#00b6b3"/>
        <path id="パス_82" data-name="パス 82" d="M960.286,511.1c0,11.344-6.912,17.4-15.341,17.4-8.769,0-14.862-6.789-14.862-16.781,0-10.476,6.484-17.362,15.311-17.362C954.424,494.357,960.286,501.274,960.286,511.1Zm-25.686.522c0,7.074,3.842,13.406,10.577,13.406,6.783,0,10.593-6.229,10.593-13.741,0-6.583-3.434-13.455-10.539-13.455S934.6,504.388,934.6,511.62Z" transform="translate(-869.505 -494.357)" fill="#00b6b3"/>
        <path id="パス_83" data-name="パス 83" d="M969.123,495.4a57.041,57.041,0,0,1,9.087-.712c6.117,0,10.5,1.45,13.4,4.153,2.956,2.678,4.682,6.507,4.682,11.831,0,5.422-1.694,9.808-4.757,12.862-3.124,3.078-8.236,4.766-14.64,4.766a68.936,68.936,0,0,1-7.768-.368Zm4.289,29.25a30.437,30.437,0,0,0,4.294.2c9.153.022,14.082-5.076,14.082-14.016.051-7.81-4.365-12.737-13.371-12.737a25.574,25.574,0,0,0-5.005.435Z" transform="translate(-875.274 -494.406)" fill="#00b6b3"/>
      </g>
    </g>
  </g>
</svg>
