<svg width="172" height="80" viewBox="0 0 172 80" fill="none" xmlns="http://www.w3.org/2000/svg">
<path d="M75.9944 4.0127H72.7466C72.2479 4.0127 71.8436 4.41514 71.8436 4.91159V25.0353C71.8436 25.5317 72.2479 25.9342 72.7466 25.9342H75.9944C76.4931 25.9342 76.8974 25.5317 76.8974 25.0353V4.91159C76.8974 4.41514 76.4931 4.0127 75.9944 4.0127Z" fill="black"/>
<path d="M68.1443 20.9033H59.4058V4.90437C59.4069 4.78419 59.3835 4.66504 59.3371 4.55408C59.2907 4.44312 59.2223 4.34263 59.1359 4.25867C59.0495 4.17471 58.947 4.109 58.8344 4.06549C58.7219 4.02198 58.6017 4.00156 58.481 4.00548H55.2332C54.9937 4.00548 54.764 4.10018 54.5947 4.26876C54.4253 4.43733 54.3302 4.66597 54.3302 4.90437V25.028C54.3321 25.2659 54.4278 25.4934 54.5968 25.6616C54.7657 25.8297 54.9943 25.925 55.2332 25.9269H68.1443C68.3832 25.925 68.6118 25.8297 68.7807 25.6616C68.9496 25.4934 69.0454 25.2659 69.0473 25.028V21.8022C69.0473 21.6841 69.0239 21.5672 68.9785 21.4582C68.9332 21.3491 68.8666 21.25 68.7828 21.1666C68.6989 21.0831 68.5994 21.0169 68.4898 20.9717C68.3803 20.9265 68.2629 20.9033 68.1443 20.9033V20.9033Z" fill="black"/>
<path d="M116.432 9.07981C116.671 9.07981 116.901 8.98511 117.07 8.81653C117.24 8.64796 117.335 8.41932 117.335 8.18092V4.9043C117.336 4.78598 117.313 4.66866 117.268 4.55916C117.223 4.44967 117.157 4.35019 117.072 4.26653C116.988 4.18287 116.889 4.11669 116.779 4.07186C116.669 4.02703 116.551 4.00443 116.432 4.0054H103.528C103.41 4.00444 103.292 4.0268 103.183 4.07118C103.073 4.11556 102.974 4.18109 102.89 4.26398C102.806 4.34687 102.739 4.44549 102.694 4.55415C102.648 4.6628 102.625 4.77934 102.625 4.89705V25.028C102.625 25.2664 102.72 25.495 102.889 25.6636C103.059 25.8322 103.288 25.9269 103.528 25.9269H116.432C116.671 25.9269 116.901 25.8322 117.07 25.6636C117.24 25.495 117.335 25.2664 117.335 25.028V21.8021C117.336 21.6838 117.313 21.5665 117.268 21.457C117.223 21.3475 117.157 21.248 117.072 21.1643C116.988 21.0807 116.889 21.0145 116.779 20.9697C116.669 20.9248 116.551 20.9022 116.432 20.9032H107.693V17.4888H116.432C116.671 17.4888 116.901 17.3941 117.07 17.2256C117.24 17.057 117.335 16.8283 117.335 16.5899V13.3568C117.336 13.2385 117.313 13.1212 117.268 13.0117C117.223 12.9022 117.157 12.8027 117.072 12.7191C116.988 12.6354 116.889 12.5692 116.779 12.5244C116.669 12.4795 116.551 12.457 116.432 12.4579H107.693V9.07981H116.432Z" fill="black"/>
<path d="M98.2921 4.00543H95.0371C94.7988 4.00542 94.5703 4.09913 94.4011 4.26614C94.232 4.43315 94.136 4.65993 94.1341 4.89707V16.5537L85.6359 4.44763C85.5201 4.29481 85.367 4.17398 85.1911 4.09659C85.0153 4.0192 84.8224 3.98782 84.631 4.00543C84.5803 3.99819 84.5288 3.99819 84.4781 4.00543L81.2302 4.00543C80.9908 4.00543 80.7611 4.10013 80.5917 4.26871C80.4224 4.43728 80.3273 4.66592 80.3273 4.90432V25.028C80.3292 25.2658 80.4249 25.4933 80.5938 25.6615C80.7628 25.8297 80.9914 25.925 81.2302 25.9269H84.4781C84.7175 25.9269 84.9472 25.8322 85.1166 25.6636C85.2859 25.495 85.381 25.2664 85.381 25.028V12.8712L94.236 25.4919C94.266 25.5362 94.3001 25.5774 94.338 25.6152C94.4148 25.7083 94.51 25.7847 94.6177 25.8396C94.7255 25.8944 94.8434 25.9266 94.9642 25.9341H98.2776C98.3977 25.9351 98.5169 25.9124 98.6282 25.8673C98.7394 25.8221 98.8406 25.7556 98.9259 25.6713C99.0112 25.5871 99.0789 25.4869 99.1251 25.3764C99.1713 25.266 99.1951 25.1476 99.1951 25.028V4.90432C99.1951 4.66592 99.1 4.43728 98.9306 4.26871C98.7613 4.10013 98.5316 4.00543 98.2921 4.00543V4.00543Z" fill="black"/>
<path d="M117.524 33.2776H54.4759C53.1085 33.2776 52 34.3811 52 35.7423V73.2785C52 74.6397 53.1085 75.7432 54.4759 75.7432H117.524C118.892 75.7432 120 74.6397 120 73.2785V35.7423C120 34.3811 118.892 33.2776 117.524 33.2776Z" fill="#08BF5B"/>
<path d="M76.5187 49.8346C76.5159 50.7295 76.3344 51.615 75.9847 52.4394C75.635 53.2638 75.1241 54.0108 74.4816 54.6368C73.8392 55.2628 73.0781 55.7554 72.2427 56.0859C71.4073 56.4164 70.5141 56.5782 69.6153 56.5618H66.6588V62.0712C66.6588 62.1588 66.6414 62.2455 66.6078 62.3264C66.5741 62.4073 66.5248 62.4808 66.4625 62.5428C66.4003 62.6047 66.3265 62.6538 66.2452 62.6873C66.1639 62.7208 66.0768 62.7381 65.9888 62.7381H62.8138C62.7262 62.7381 62.6394 62.7208 62.5585 62.6872C62.4777 62.6536 62.4043 62.6044 62.3427 62.5423C62.281 62.4803 62.2324 62.4067 62.1995 62.3259C62.1666 62.245 62.1502 62.1584 62.1512 62.0712V43.7598C62.1512 43.5848 62.221 43.4171 62.3453 43.2933C62.4695 43.1696 62.6381 43.1001 62.8138 43.1001H69.6153C70.5147 43.0838 71.4085 43.2458 72.2444 43.5767C73.0803 43.9076 73.8417 44.4009 74.4842 45.0277C75.1268 45.6545 75.6375 46.4023 75.9868 47.2276C76.3361 48.0528 76.5169 48.9391 76.5187 49.8346ZM72.0111 49.8346C72.0278 49.5105 71.9784 49.1864 71.8657 48.8819C71.753 48.5773 71.5794 48.2987 71.3554 48.0629C71.1315 47.8271 70.8618 47.6389 70.5627 47.5099C70.2636 47.3808 69.9413 47.3134 69.6153 47.3119H66.6588V52.3863H69.6153C69.9439 52.385 70.2687 52.3168 70.5699 52.1859C70.8711 52.0551 71.1421 51.8643 71.3665 51.6253C71.5909 51.3863 71.7638 51.1042 71.8747 50.7962C71.9855 50.4883 72.0319 50.161 72.0111 49.8346V49.8346Z" fill="white"/>
<path d="M93.253 49.059V62.3902C93.253 62.4825 93.2162 62.571 93.1506 62.6363C93.0851 62.7015 92.9962 62.7382 92.9035 62.7382H89.3789C89.2868 62.7363 89.199 62.6991 89.1338 62.6342C89.0687 62.5694 89.0313 62.4819 89.0294 62.3902V61.4188C88.5014 61.9958 87.8511 62.4486 87.1257 62.7445C86.4002 63.0404 85.6178 63.1719 84.8349 63.1296C81.1429 63.1296 78.099 59.9038 78.099 55.721C78.099 51.5382 81.1283 48.3196 84.8349 48.3196C85.6178 48.2773 86.4002 48.4089 87.1257 48.7048C87.8511 49.0007 88.5014 49.4535 89.0294 50.0304V49.059C89.0294 48.9667 89.0662 48.8782 89.1318 48.813C89.1973 48.7477 89.2862 48.7111 89.3789 48.7111H92.9035C92.9496 48.7101 92.9955 48.7184 93.0384 48.7355C93.0812 48.7527 93.1202 48.7783 93.1528 48.8108C93.1855 48.8433 93.2112 48.882 93.2284 48.9247C93.2456 48.9674 93.254 49.0131 93.253 49.059V49.059ZM89.0294 55.721C89.0136 55.0634 88.8032 54.425 88.4246 53.8859C88.0459 53.3467 87.5159 52.9308 86.9008 52.6903C86.2858 52.4498 85.6131 52.3953 84.967 52.5337C84.321 52.6721 83.7304 52.9972 83.2692 53.4683C82.808 53.9394 82.4967 54.5356 82.3743 55.182C82.252 55.8285 82.324 56.4965 82.5814 57.1024C82.8388 57.7083 83.27 58.225 83.8212 58.588C84.3723 58.9509 85.0188 59.1438 85.6796 59.1426C86.1322 59.162 86.5839 59.0861 87.005 58.9199C87.4261 58.7536 87.8072 58.5007 88.1234 58.1778C88.4396 57.8548 88.6837 57.469 88.8399 57.0457C88.996 56.6223 89.0606 56.1709 89.0294 55.721V55.721Z" fill="white"/>
<path d="M107.344 49.0734L104.074 57.207L100.724 49.0734C100.679 48.9676 100.604 48.8771 100.509 48.8127C100.413 48.7484 100.301 48.7131 100.185 48.711H96.5881C96.5312 48.7115 96.4753 48.726 96.4252 48.753C96.3751 48.78 96.3325 48.8187 96.3009 48.8659C96.2693 48.913 96.2498 48.9672 96.244 49.0235C96.2382 49.0799 96.2463 49.1369 96.2677 49.1894L101.86 62.7671L99.8214 67.885C99.7997 67.9371 99.7913 67.9937 99.797 68.0498C99.8027 68.106 99.8223 68.1598 99.8541 68.2065C99.8858 68.2532 99.9287 68.2913 99.979 68.3174C100.029 68.3436 100.085 68.3569 100.142 68.3562H103.783C103.899 68.3559 104.012 68.3213 104.108 68.2568C104.204 68.1922 104.278 68.1006 104.322 67.9937L111.786 49.1894C111.807 49.1363 111.815 49.0787 111.809 49.0217C111.803 48.9648 111.783 48.9102 111.751 48.8629C111.718 48.8155 111.674 48.7769 111.623 48.7504C111.572 48.7239 111.516 48.7104 111.458 48.711H107.861C107.748 48.7145 107.64 48.7507 107.548 48.8151C107.456 48.8795 107.385 48.9693 107.344 49.0734V49.0734Z" fill="white"/>
</svg>
