<svg width="201" height="201" viewBox="0 0 201 201" fill="none" xmlns="http://www.w3.org/2000/svg">
<path d="M13.4 200.5C10.1 200.5 6.80001 199.2 4.20001 196.7C-0.799988 191.7 -0.799988 183.4 4.20001 178.4L178.4 4.30005C183.4 -0.699951 191.7 -0.699951 196.7 4.30005C201.7 9.30005 201.7 17.6 196.7 22.6L22.7 196.7C20.1 199.2 16.8 200.5 13.4 200.5Z" fill="#474747"/>
<path d="M187.6 200.5C184.3 200.5 181 199.2 178.4 196.7L4.30001 22.6C-0.699988 17.6 -0.699988 9.30005 4.30001 4.30005C9.30001 -0.699951 17.6 -0.699951 22.6 4.30005L196.7 178.4C201.7 183.4 201.7 191.7 196.7 196.7C194.2 199.2 190.8 200.5 187.6 200.5Z" fill="#474747"/>
</svg>
