<svg width="236" height="236" viewBox="0 0 236 236" fill="none" xmlns="http://www.w3.org/2000/svg">
<path d="M105.482 235C101.911 234.675 98.4052 234.351 94.8346 234.026C75.7478 232.338 57.0506 229.027 39.3921 221.237C32.2508 218.056 25.564 214.16 20.5001 207.993C12.5798 198.385 13.2939 186.634 22.1232 177.805C28.2906 171.702 35.8215 167.742 43.8067 164.626C54.3888 160.471 65.3605 157.744 76.5269 155.926C77.1112 155.861 77.6954 155.667 78.4745 155.472C78.085 154.758 77.7604 154.173 77.4358 153.589C69.5803 141.319 61.5951 129.049 53.8695 116.714C47.7669 107.041 44.0015 96.0693 42.8978 84.7081C41.0801 66.5303 45.1701 49.7807 55.3627 34.6541C66.4641 18.1642 81.8504 7.38733 101.327 2.97271C120.478 -1.377 138.656 1.47952 155.601 11.4124C172.999 21.605 184.685 36.5368 190.138 55.8832C196.566 78.4757 192.995 99.7698 180.076 119.441C172.285 131.256 164.819 143.267 156.964 155.472C159.561 155.926 161.898 156.381 164.235 156.835C177.154 159.497 189.814 162.808 201.5 169.105C207.537 172.351 213.12 176.182 216.886 182.025C222.664 190.854 221.69 200.722 214.549 208.642C208.901 214.875 201.759 218.9 194.164 222.081C179.621 228.183 164.365 231.364 148.719 233.052C143.071 233.702 137.358 234.026 131.71 234.481C131.06 234.546 130.346 234.74 129.697 234.87L105.482 235ZM117.881 191.243C118.596 190.075 119.18 189.296 119.699 188.452C135.8 163.197 151.9 137.943 168 112.689C169.948 109.638 172.026 106.586 173.454 103.211C184.101 78.4757 180.92 55.5586 163.196 35.3033C149.368 19.5275 131.32 13.0354 110.545 15.3726C92.822 17.3202 78.6693 26.0196 68.0222 40.4321C53.415 60.2329 52.2465 88.6683 65.4254 109.313C82.4347 135.996 99.444 162.613 116.518 189.231C116.973 189.88 117.297 190.399 117.881 191.243ZM123.27 221.367C128.788 220.912 139.695 220.198 150.537 219.029C163.261 217.731 175.726 214.68 187.607 209.941C193.774 207.409 199.747 204.617 204.291 199.488C207.667 195.658 207.862 192.022 204.291 188.387C201.629 185.725 198.578 183.388 195.332 181.505C181.634 173.845 166.507 170.923 151.186 168.651C149.238 168.391 148.394 169.04 147.42 170.534C139.76 182.674 132.034 194.814 124.244 206.824C123.14 208.512 121.517 209.811 119.699 210.59C116.518 211.823 113.727 210.33 111.519 206.889C103.794 194.814 96.0031 182.674 88.4074 170.534C87.3687 168.846 86.265 168.326 84.3823 168.651C79.9028 169.495 75.3583 170.079 70.9437 170.988C60.2966 173.195 49.7795 176.052 40.301 181.505C36.99 183.453 33.9388 185.855 31.2121 188.646C27.9011 192.022 28.1608 195.658 31.277 199.229C32.7702 200.852 34.3932 202.345 36.211 203.578C43.4172 208.577 51.5323 211.499 59.9071 213.901C78.864 219.419 98.2754 221.107 123.27 221.367Z" fill="white"/>
<path d="M152.095 76.9827C152.095 81.4622 151.251 85.9417 149.498 90.0967C147.81 94.2516 145.278 98.017 142.097 101.198C138.916 104.379 135.15 106.911 130.996 108.599C126.841 110.352 122.426 111.196 117.881 111.196C113.337 111.196 108.922 110.352 104.703 108.599C100.548 106.846 96.7173 104.379 93.5361 101.133C90.355 97.9521 87.8231 94.1218 86.0702 89.9668C84.3823 85.8119 83.4734 81.3324 83.4734 76.7879C83.4734 72.3084 84.3823 67.8288 86.1352 63.6739C87.888 59.5189 90.4199 55.7535 93.6011 52.5724C96.7822 49.3913 100.548 46.8594 104.703 45.1714C108.857 43.4835 113.337 42.5746 117.817 42.5746C122.296 42.5746 126.776 43.4835 130.931 45.1714C135.086 46.9243 138.851 49.3913 142.032 52.5724C145.213 55.7535 147.745 59.5189 149.433 63.6739C151.251 68.0236 152.095 72.5031 152.095 76.9827ZM138.396 77.0476C137.942 65.6215 129.827 56.6624 117.946 56.5975C106.65 56.5326 97.5612 64.8425 97.4314 76.8528C97.3016 88.3438 105.936 97.4328 117.881 97.4328C129.502 97.4328 137.877 88.7334 138.396 77.0476Z" fill="white"/>
</svg>
