<svg width="236" height="236" viewBox="0 0 236 236" fill="none" xmlns="http://www.w3.org/2000/svg">
<path d="M118 1C53.3831 1 1 53.3831 1 118C1 182.618 53.3831 235 118 235C182.618 235 235 182.618 235 118C235 53.3831 182.618 1 118 1ZM118 213.959C65.0027 213.959 22.0393 170.996 22.0393 118C22.0393 65.0027 65.0027 22.0393 118 22.0393C170.996 22.0393 213.959 65.0027 213.959 118C213.959 170.996 170.996 213.959 118 213.959Z" fill="white"/>
<path d="M115.716 174.632V165.034C103.706 163.807 92.9254 159.029 83.3717 150.702L92.9693 139.261C100.332 145.66 107.912 149.476 115.716 150.702V125.193C105.81 122.828 98.5573 119.717 93.9565 115.859C89.3545 112.003 87.0535 106.284 87.0535 98.7012C87.0535 91.1217 89.7043 84.9183 95.0083 80.0957C100.311 75.2756 107.214 72.6467 115.716 72.2055V65.6328H124.132V72.3384C133.772 73.0416 142.888 76.3273 151.479 82.1981L142.93 94.2942C137.144 90.176 130.874 87.6349 124.125 86.6684V111.387H124.52C134.601 113.754 142.009 116.954 146.739 120.985C151.475 125.018 153.839 130.868 153.839 138.537C153.839 146.207 151.122 152.45 145.688 157.271C140.252 162.092 133.066 164.721 124.127 165.162V174.629L115.716 174.632ZM106.447 89.7604C104.212 91.7323 103.095 94.1869 103.095 97.1241C103.095 100.063 103.969 102.383 105.725 104.092C107.477 105.802 110.807 107.444 115.717 109.023V86.276C111.772 86.627 108.683 87.7885 106.447 89.7604ZM134.124 147.416C136.577 145.401 137.805 142.859 137.805 139.79C137.805 136.721 136.839 134.29 134.914 132.492C132.983 130.696 129.39 129.011 124.132 127.434V151.099C128.34 150.659 131.668 149.433 134.124 147.416Z" fill="white"/>
</svg>
