<svg width="100" height="100" viewBox="0 0 100 100" fill="none" xmlns="http://www.w3.org/2000/svg">
<path fill-rule="evenodd" clip-rule="evenodd" d="M6.75781 51.125H68.8672C69.834 51.125 70.625 51.916 70.625 52.8828V90.9688C70.625 94.8506 67.4756 98 63.5937 98H12.0312C8.14941 98 5 94.8506 5 90.9688V52.8828C5 51.916 5.79102 51.125 6.75781 51.125ZM70.625 44.6797V39.4062C70.625 35.5244 67.4756 32.375 63.5937 32.375H56.5625V24.7578C56.5625 23.791 55.7715 23 54.8047 23H48.9453C47.9785 23 47.1875 23.791 47.1875 24.7578V32.375H28.4375V24.7578C28.4375 23.791 27.6465 23 26.6797 23H20.8203C19.8535 23 19.0625 23.791 19.0625 24.7578V32.375H12.0312C8.14941 32.375 5 35.5244 5 39.4062V44.6797C5 45.6465 5.79102 46.4375 6.75781 46.4375H68.8672C69.834 46.4375 70.625 45.6465 70.625 44.6797ZM49.6302 88.1251C47.2936 88.1167 45.2753 87.5766 43.5753 86.5046C41.8752 85.4326 40.5646 83.8875 39.6433 81.8692C38.7221 79.8509 38.2657 77.4306 38.2741 74.6083C38.2824 71.7776 38.7431 69.3741 39.6559 67.3977C40.5771 65.4212 41.8836 63.918 43.5753 62.8879C45.2753 61.8578 47.2936 61.3427 49.6302 61.3427C51.9667 61.3427 53.985 61.862 55.6851 62.9004C57.3852 63.9305 58.6958 65.4338 59.617 67.4102C60.5383 69.3867 60.9947 71.786 60.9863 74.6083C60.9863 77.4473 60.5257 79.876 59.6045 81.8943C58.6833 83.9126 57.3726 85.4577 55.6725 86.5297C53.9809 87.5933 51.9667 88.1251 49.6302 88.1251ZM49.6302 82.447C50.8361 82.447 51.8244 81.8189 52.5948 80.5627C53.3737 79.2981 53.7589 77.3133 53.7505 74.6083C53.7505 72.8412 53.5747 71.3966 53.2229 70.2744C52.8712 69.1522 52.3855 68.3231 51.7657 67.7871C51.146 67.2427 50.4342 66.9706 49.6302 66.9706C48.4242 66.9706 47.4402 67.5819 46.6781 68.8046C45.916 70.0273 45.5266 71.9619 45.5098 74.6083C45.5014 76.4089 45.6731 77.8912 46.0249 79.0553C46.3766 80.211 46.8623 81.0652 47.4821 81.6179C48.1102 82.1707 48.8262 82.447 49.6302 82.447ZM19.2018 86.7307C20.7763 87.4258 22.5769 87.7733 24.6035 87.7733C26.7056 87.7733 28.5606 87.4425 30.1685 86.7809C31.7849 86.1193 33.0453 85.2065 33.9497 84.0424C34.8626 82.8783 35.3148 81.5425 35.3064 80.0351C35.3232 78.4606 34.8081 77.1542 33.7613 76.1157C32.7145 75.0689 31.1526 74.4324 29.0756 74.2063V74.0053C30.6082 73.8378 31.8728 73.2934 32.8694 72.3722C33.8744 71.451 34.3685 70.2701 34.3517 68.8297C34.3601 67.3809 33.9497 66.0954 33.1206 64.9731C32.2999 63.8426 31.1568 62.9548 29.6912 62.31C28.234 61.6651 26.5548 61.3427 24.6538 61.3427C22.7109 61.3427 20.9898 61.6861 19.4908 62.3728C17.9917 63.0595 16.8109 64.0059 15.9483 65.2118C15.094 66.4178 14.6627 67.808 14.6544 69.3824H21.3374C21.3458 68.8632 21.4923 68.4026 21.7771 68.0006C22.0618 67.5986 22.4512 67.2846 22.9453 67.0584C23.4478 66.8323 24.0173 66.7193 24.6538 66.7193C25.24 66.7193 25.7551 66.8281 26.1989 67.0459C26.6512 67.2636 27.0029 67.5651 27.2541 67.9504C27.5054 68.3356 27.6268 68.7794 27.6184 69.2819C27.6268 69.8012 27.4803 70.2618 27.1788 70.6638C26.8857 71.0657 26.4711 71.3798 25.9351 71.6059C25.4075 71.832 24.7962 71.9451 24.1011 71.9451H21.4881V76.7689H24.1011C24.8548 76.7689 25.5206 76.882 26.0984 77.1081C26.6763 77.3342 27.1243 77.6483 27.4426 78.0503C27.7692 78.4522 27.9283 78.9129 27.9199 79.4321C27.9283 79.9597 27.7943 80.4287 27.5179 80.839C27.2416 81.2494 26.8563 81.5718 26.3622 81.8063C25.8681 82.0324 25.2986 82.1455 24.6538 82.1455C23.9838 82.1455 23.3892 82.0366 22.87 81.8189C22.3507 81.6011 21.9404 81.2997 21.6389 80.9144C21.3458 80.5208 21.195 80.0769 21.1867 79.5828H14.1519C14.1603 81.1824 14.6125 82.5977 15.5086 83.8288C16.4047 85.0599 17.6358 86.0272 19.2018 86.7307Z" fill="white"/>
<path d="M81.3111 3.67918C73.6579 2.75183 66.7313 7.95871 65.8405 15.3098C65.4563 18.4812 66.2628 21.5299 67.9134 24.0498C66.8434 27.1868 64.2346 29.7873 64.2034 29.8179C64.1363 29.8834 64.0863 29.9699 64.0594 30.0666C64.0326 30.1633 64.0302 30.266 64.0525 30.362C64.0747 30.458 64.1207 30.543 64.1848 30.6066C64.2488 30.6702 64.328 30.7096 64.4127 30.7198C67.9995 31.1544 70.9377 29.449 72.4221 28.3543C74.0962 29.3564 76.0064 30.0469 78.0856 30.2989C85.7388 31.2262 92.6654 26.0193 93.5562 18.6682C94.4469 11.3171 88.9643 4.60653 81.3111 3.67918ZM80.2653 23.1896L80.1291 24.3133C80.0606 24.8789 79.6175 25.2901 79.1389 25.2322L78.2728 25.1272C77.7943 25.0692 77.4622 24.5641 77.5308 23.9984L77.6682 22.8639C77.0605 22.7026 76.5024 22.3856 76.0368 21.9221C75.7319 21.6183 75.7692 21.0385 76.0954 20.7358L77.1796 19.7296C77.4111 19.5149 77.7165 19.5194 77.9592 19.6923C78.12 19.8066 78.3025 19.878 78.4974 19.9017L80.2718 20.1167C80.5241 20.1472 80.758 19.9301 80.794 19.6332C80.823 19.3933 80.7124 19.1637 80.5256 19.0741L77.926 17.8307C76.7708 17.2784 75.9518 15.987 75.9729 14.4988C76.0023 12.4201 77.4638 10.8207 79.1315 10.7878L79.2676 9.66476C79.3361 9.09909 79.7792 8.68789 80.2578 8.74587L81.1239 8.85082C81.6024 8.90881 81.9345 9.41394 81.8659 9.9796L81.7285 11.1141C82.3362 11.2754 82.8943 11.5924 83.3599 12.0559C83.6648 12.3597 83.6275 12.9396 83.3013 13.2422L82.2171 14.2484C81.9856 14.4632 81.6802 14.4586 81.4375 14.2857C81.2747 14.1704 81.0911 14.099 80.8994 14.0764L79.1249 13.8614C78.8726 13.8308 78.6387 14.0479 78.6027 14.3448C78.5737 14.5848 78.6843 14.8144 78.8711 14.9039L81.4707 16.1474C82.6258 16.7003 83.4449 17.991 83.4239 19.4792C83.3945 21.5573 81.933 23.1567 80.2653 23.1896Z" fill="white"/>
</svg>
