<svg width="422" height="422" viewBox="0 0 422 422" fill="none" xmlns="http://www.w3.org/2000/svg">
<path d="M299.07 19C300.19 19.47 301.31 20 302.45 20.41C310.61 23.6 315.37 30.84 315.39 40.41C315.39 60.87 315.39 81.33 315.39 101.79V106.49C345.96 109.8 370.78 123.17 389.29 147.49C403.168 165.424 410.468 187.579 409.97 210.25C409.63 236.64 400.38 259.74 382.38 279.09C364.38 298.44 341.92 309.09 315.38 311.78V316.09C315.38 337.29 315.38 358.497 315.38 379.71C315.38 394.24 307.19 402.32 292.55 402.32H111.78C97.11 402.32 89 394.32 89 379.71C89 267.817 89 155.923 89 44.03C89 29.34 92.18 24.5 105.46 19.03L299.07 19ZM208.94 273.76C210.94 273.85 212.14 273.96 213.35 273.97C222.98 273.97 232.61 274.04 242.23 273.97C245.485 273.854 248.664 274.964 251.14 277.08C264.595 288.141 281.032 294.956 298.367 296.658C315.701 298.36 333.151 294.873 348.5 286.64C363.848 278.452 376.415 265.886 384.606 250.54C392.796 235.193 396.24 217.758 394.5 200.45C393.313 188.681 389.763 177.272 384.063 166.907C378.362 156.542 370.629 147.434 361.326 140.128C352.023 132.822 341.342 127.469 329.921 124.388C318.5 121.308 306.575 120.563 294.86 122.2C239.27 129.97 204.75 186.81 224.41 239.2C227.55 247.56 226.77 253.2 220.85 259.2C216.66 263.49 213.18 268.52 208.94 273.76V273.76ZM104.31 84.59V326.13H300.19V312C299.27 311.88 298.54 311.76 297.81 311.69C278.786 310.008 260.613 303.031 245.35 291.55C242.999 289.739 240.086 288.812 237.12 288.93C200.453 289.01 163.813 289.01 127.2 288.93C119.68 288.93 117.32 286.57 117.32 279.09C117.32 259.63 117.32 240.167 117.32 220.7C117.32 212.4 119.47 210.24 127.72 210.23H203.55C204.02 204.23 204.47 198.62 204.94 192.71H127.45C119.61 192.71 117.33 190.48 117.33 182.77C117.33 163.183 117.33 143.593 117.33 124C117.33 116.29 119.6 114.07 127.45 114.07C172.963 114.07 218.477 114.07 263.99 114.07C265.482 114.144 266.977 114.029 268.44 113.73C278.88 110.97 289.3 108.12 300.15 105.18V84.59H104.31ZM104.03 341.69C104.03 354.92 104.03 367.75 104.03 380.58C104.03 385.58 105.83 387.34 110.8 387.34C171.667 387.34 232.533 387.34 293.4 387.34C298.61 387.34 300.4 385.61 300.4 380.34C300.44 368.34 300.44 356.367 300.4 344.42C300.4 343.57 300.27 342.73 300.18 341.65L104.03 341.69ZM104.03 69.17H300.38C300.38 59.98 300.38 51.03 300.38 42.08C300.38 35.34 299.01 33.97 292.29 33.97H111.94C111.06 33.97 110.18 33.97 109.31 33.97C106.07 34.21 104.12 36.02 104.08 39.2C103.97 49.06 104.05 58.9 104.05 69.17H104.03ZM132.59 129.17V177.62H208.76C215.09 158.51 226.12 142.55 242.09 129.17H132.59ZM132.47 273.55C132.979 273.728 133.505 273.852 134.04 273.92C151.9 273.92 169.75 273.98 187.61 273.92C188.913 273.764 190.105 273.112 190.94 272.1C197.22 264.513 203.413 256.847 209.52 249.1C209.893 248.655 210.174 248.141 210.346 247.586C210.518 247.031 210.577 246.448 210.52 245.87C208.67 239.06 206.6 232.32 204.58 225.49H132.48L132.47 273.55Z" fill="white"/>
<path d="M301.26 281.93C288.82 281.84 273.26 276.19 259.73 265.15C255.94 262.06 255.15 258.08 257.45 254.61C260.12 250.61 264.84 250.03 269.15 253.54C277.416 260.281 287.323 264.708 297.86 266.37C328.59 271.46 359.49 248.79 363.63 218C368.06 185 346.63 156.64 313.74 151.75C289.47 148.16 263.74 162.53 253.53 185.43C253.17 186.22 252.87 187.04 252.53 187.83C250.4 192.29 246.45 194.06 242.43 192.38C238.41 190.7 236.92 186.51 238.74 181.99C242.546 172.167 248.585 163.365 256.38 156.28C278.16 136.8 303.38 130.95 330.85 140.78C358.32 150.61 374.85 171.05 378.64 200.19C384.35 243.76 350.33 281.85 301.26 281.93Z" fill="white"/>
<path d="M303.67 228.2C303.67 223.01 303.78 219.05 303.58 215.11C303.58 214.32 302.45 213.37 301.58 212.87C299.98 211.87 298.19 211.29 296.58 210.42C290.11 207.01 286.64 201.79 287.31 194.34C287.98 186.89 292.5 181.57 300.04 179.46C301.98 178.92 303.98 178.95 303.98 176.01C303.98 175.34 306.36 173.86 306.98 174.16C308.52 174.88 309.68 176.42 311.57 178.16C314.618 178.796 317.624 179.621 320.57 180.63C324.73 182.27 325.73 185.48 323.87 189.46C322.21 193 320.25 193.46 315.87 191.46C314.2 190.7 312.42 190.21 310.07 189.37C310.07 193.53 309.98 197.11 310.15 200.68C310.253 201.126 310.447 201.545 310.718 201.914C310.99 202.282 311.334 202.59 311.73 202.82C313.1 203.67 314.67 204.18 316.11 204.91C323.64 208.76 326.93 214.91 326.11 223.29C325.37 230.76 320.77 236.18 312.81 238.69C312.1 238.91 311.39 239.11 311.18 239.88C309.77 241.29 308.54 243.49 306.9 243.88C305.79 244.13 304.1 241.81 302.4 240.42C298.46 238.77 293.78 237.34 289.68 234.93C285.58 232.52 284.88 228.59 286.82 224.93C288.76 221.27 291.38 220.63 294.82 222.79C297.48 224.43 300.18 226.06 303.67 228.2ZM309.39 227.27C312.78 226.27 314.47 224.51 314.06 221.46C313.994 220.238 313.482 219.083 312.622 218.213C311.761 217.343 310.611 216.819 309.39 216.74V227.27ZM304.26 190.68L303.11 189.8C301.84 191.37 299.77 192.8 299.48 194.54C299.01 197.38 301.48 198.71 304.26 199.82V190.68Z" fill="white"/>
<path d="M240.76 201.71C242.715 201.672 244.605 202.411 246.016 203.764C247.428 205.118 248.245 206.975 248.29 208.93C248.33 209.929 248.168 210.926 247.812 211.861C247.457 212.796 246.915 213.649 246.221 214.368C245.527 215.088 244.693 215.66 243.772 216.048C242.851 216.437 241.86 216.635 240.86 216.63C238.904 216.609 237.034 215.821 235.654 214.435C234.273 213.049 233.493 211.176 233.48 209.22C233.463 207.263 234.218 205.378 235.58 203.973C236.942 202.567 238.803 201.755 240.76 201.71V201.71Z" fill="white"/>
<path d="M201.95 371.8C197.2 371.8 192.45 371.88 187.7 371.8C182.95 371.72 179.87 368.8 179.75 364.61C179.63 360.42 182.82 356.98 187.64 356.91C197.26 356.777 206.887 356.777 216.52 356.91C221.38 356.91 224.69 360.14 224.71 364.37C224.73 368.6 221.48 371.72 216.58 371.82C211.68 371.92 206.83 371.81 201.95 371.8Z" fill="white"/>
<path d="M187.32 44.27C199.2 44.27 211.07 44.1 222.94 44.41C225.604 44.5272 228.127 45.6407 230.01 47.53C233.88 52.03 230.49 58.61 224.28 59.15C221.28 59.41 218.28 59.24 215.28 59.24H153.79C152.79 59.24 151.79 59.24 150.79 59.24C145.97 58.94 142.79 55.8 142.98 51.46C143.17 47.12 146.16 44.38 150.98 44.33C160.6 44.23 170.23 44.33 179.85 44.33L187.32 44.27Z" fill="white"/>
<path d="M261.49 51.86C261.413 53.8174 260.586 55.6702 259.18 57.0347C257.775 58.3993 255.898 59.171 253.94 59.19C252.939 59.1654 251.953 58.9429 251.039 58.5353C250.124 58.1277 249.3 57.543 248.613 56.815C247.926 56.087 247.39 55.2302 247.036 54.2939C246.682 53.3576 246.516 52.3604 246.55 51.36C246.594 50.3944 246.829 49.4472 247.241 48.5725C247.652 47.6978 248.232 46.9129 248.948 46.2627C249.663 45.6125 250.499 45.1097 251.409 44.7832C252.319 44.4567 253.284 44.3129 254.25 44.36C256.204 44.3968 258.063 45.2071 259.42 46.6131C260.778 48.0191 261.522 49.906 261.49 51.86V51.86Z" fill="white"/>
</svg>
