<svg width="38" height="38" viewBox="0 0 38 38" fill="none" xmlns="http://www.w3.org/2000/svg">
<path d="M35.5976 4.54989C35.5976 4.26209 35.6017 3.97225 35.5661 3.6875C35.5132 3.26241 35.263 2.99393 34.8237 3.00512C34.3895 3.0163 34.1454 3.2858 34.1078 3.71598C34.0854 3.96819 34.0945 4.22345 34.0945 4.47769C34.0945 12.6948 34.0945 20.9109 34.0935 29.128C34.0935 29.9365 34.0813 29.9487 33.2667 29.9487C28.9466 29.9507 24.6266 29.9507 20.3065 29.9487C19.5926 29.9487 19.5651 29.9141 19.558 29.2033C19.5559 29.0334 19.558 28.8646 19.558 28.6948C19.558 20.5631 19.558 12.4304 19.5559 4.2987C19.5559 4.06276 19.559 3.82073 19.5102 3.59191C19.4309 3.21868 19.1787 2.99698 18.7892 3.00105C18.4007 3.00613 18.1515 3.23597 18.0783 3.60716C18.0295 3.85327 18.0417 4.1126 18.0417 4.36582C18.0396 12.6165 18.0407 20.8672 18.0396 29.1178C18.0396 29.9385 18.0335 29.9467 17.2261 29.9467C12.9233 29.9487 24.6886 29.9477 20.3858 29.9477C20.2505 29.9477 20.1153 29.9416 19.979 29.9375C19.7075 29.9294 19.5824 29.7829 19.5824 29.5175C19.5824 29.2297 19.5763 28.9419 19.5763 28.6531C19.5763 20.5377 19.5763 12.4223 19.5753 4.30785C19.5753 4.08819 19.5885 3.86344 19.5509 3.64886C19.4817 3.25326 19.2376 3.00308 18.8247 3.00003C18.4363 2.99698 18.181 3.22275 18.1108 3.59801C18.059 3.87768 18.061 4.17056 18.061 4.45735C18.059 12.6236 18.059 20.7889 18.059 28.9551C18.059 29.6148 17.7213 29.9453 17.0461 29.9467C12.8277 29.9467 8.60929 29.9467 4.3909 29.9467C4.23835 29.9467 4.0858 29.9416 3.93326 29.9375C3.66173 29.9324 3.53257 29.786 3.52851 29.5216C3.52342 29.2338 3.52037 28.946 3.52037 28.6582C3.52037 20.5428 3.52037 12.4273 3.51935 4.31294C3.51935 4.09327 3.53054 3.86954 3.50003 3.65293C3.44206 3.25122 3.19291 3.00918 2.78307 3.00206C2.39458 2.99596 2.14136 3.22071 2.0722 3.60004C2.02441 3.86445 2.01932 4.13904 2.01932 4.40853C2.01627 7.35673 2.01932 10.3039 2.01627 13.2521C2.0122 19.0631 2.00305 24.874 2 30.685C2 31.8026 2.00305 32.9213 2.02949 34.039C2.04576 34.7254 2.31933 34.9736 3.00782 34.9949C3.26206 35.003 3.5163 34.999 3.77054 34.999C11.4619 34.999 3.08511 34.999 10.7764 34.999C18.6376 34.999 26.4988 34.999 34.36 34.999C35.3688 34.999 35.5854 34.7854 35.5915 33.7745C35.5997 32.2837 35.5986 30.7928 35.5997 29.3029C35.5997 21.0523 35.5997 12.8016 35.5997 4.55091L35.5976 4.54989ZM32.9738 33.4806C25.5713 33.4827 18.1688 33.4817 10.7673 33.4817C3.29765 33.4817 11.8961 33.4817 4.42649 33.4817C3.82241 33.4817 3.51969 33.1861 3.51834 32.5949C3.51834 31.3704 3.438 31.4559 4.637 31.4559C19.5092 31.4559 18.3122 31.4559 33.1854 31.4559C33.7895 31.4559 34.0922 31.7535 34.0935 32.3488C34.0935 33.6027 34.1637 33.4806 32.9759 33.4817L32.9738 33.4806Z" fill="white"/>
<path d="M30.3897 16.2369C30.2565 15.0227 29.5334 14.3687 28.3222 14.2548C27.2412 14.1531 26.1571 14.2162 25.075 14.202C24.6865 14.1969 24.537 14.3687 24.5421 14.7572C24.5574 15.8566 24.5472 16.9569 24.5462 18.0573C24.5462 19.0224 24.5462 19.9865 24.5462 20.9516C24.5462 22.0591 24.5462 22.0458 25.6384 22.0092C26.0391 21.996 26.1764 21.8241 26.1662 21.4479C26.154 20.974 26.1632 20.5001 26.1662 20.0261C26.1703 19.239 26.1876 19.2258 26.9523 19.2136C27.3245 19.2075 27.6957 19.1892 28.0679 19.1749C29.8253 19.1078 30.5982 18.1275 30.3897 16.2379V16.2369ZM27.952 17.8234C27.589 17.8844 27.2137 17.8671 26.8445 17.8976C26.3594 17.9383 26.1021 17.7624 26.1621 17.2376C26.1815 17.0708 26.1652 16.901 26.1642 16.7322C26.1774 15.4935 26.0238 15.5637 27.3418 15.5616C27.5107 15.5616 27.6795 15.5647 27.8473 15.582C28.4758 15.6471 28.7849 15.9766 28.8114 16.601C28.8408 17.3098 28.5724 17.7186 27.953 17.8234H27.952Z" fill="white"/>
<path d="M12.5937 20.916C11.5341 21.0574 10.4673 21.1153 9.4035 20.9679C8.36416 20.8235 8.31331 20.7258 8.02754 22.0753C7.94517 22.4659 8.07737 22.6896 8.4445 22.8137C9.18892 23.0679 9.95572 23.1808 10.6747 23.2154C11.2981 23.2032 11.8513 23.132 12.3964 23.0008C13.5385 22.7252 13.629 22.5543 13.326 21.4194C13.2192 21.0218 13.0127 20.8601 12.5937 20.916Z" fill="white"/>
<path d="M16.2203 10.849C16.204 8.82318 14.6684 7.28857 12.6375 7.25806C11.4009 7.23874 10.1642 7.23671 8.92758 7.25806C6.94958 7.29264 5.37632 8.78453 5.357 10.7656C5.31632 15.1019 5.31531 19.4393 5.357 23.7757C5.37632 25.7883 6.95364 27.2608 8.96928 27.2832C10.1378 27.2964 11.3073 27.2924 12.4758 27.2863C14.704 27.273 16.2132 25.774 16.2223 23.555C16.2315 21.4712 16.2243 19.3875 16.2233 17.3037C16.2233 15.1518 16.2355 13.0009 16.2193 10.849H16.2203ZM14.7223 23.3933C14.7162 24.9899 13.9412 25.77 12.3558 25.7801C11.2544 25.7872 10.153 25.7923 9.05267 25.7761C7.6879 25.7547 6.86619 24.936 6.86313 23.5804C6.855 19.3793 6.855 15.1782 6.86313 10.9771C6.86517 9.61845 7.69705 8.78758 9.04555 8.77538C10.1978 8.76521 11.349 8.76623 12.5012 8.77538C13.8863 8.78555 14.7091 9.59709 14.7192 10.9944C14.7345 13.0945 14.7233 15.1955 14.7233 17.2966C14.7233 19.3295 14.7294 21.3624 14.7223 23.3953V23.3933Z" fill="white"/>
<path d="M13.0087 11.3859C12.2805 11.1449 11.5381 11.0066 10.6442 11.0066C10.2252 10.9903 9.69132 11.0727 9.16555 11.2049C8.02451 11.4917 7.94518 11.6463 8.26349 12.7975C8.36722 13.1717 8.56858 13.3406 8.95707 13.2897C10.1866 13.128 11.4171 13.127 12.6476 13.2806C13.086 13.3355 13.3219 13.1504 13.3778 12.7161C13.4033 12.5148 13.445 12.3165 13.4734 12.1161C13.5263 11.7419 13.3738 11.5049 13.0097 11.3849L13.0087 11.3859Z" fill="white"/>
</svg>
