<svg width="236" height="236" viewBox="0 0 236 236" fill="none" xmlns="http://www.w3.org/2000/svg">
<path d="M1 126.082C2.06428 123.241 4.12189 121.608 6.74712 120.259C77.8411 83.2613 148.864 46.1929 219.958 9.12454C221.803 8.13037 223.648 7.06518 225.421 6H229.962L235 11.0419V15.5867C234.22 20.0604 233.439 24.5342 232.73 29.008C229.537 50.0986 226.415 71.2602 223.293 92.3509C220.313 112.305 217.404 132.189 214.424 152.143C212.366 166.062 210.309 179.98 208.18 193.898C207.329 199.579 203.143 201.994 197.679 200.147C177.742 193.33 157.804 186.513 137.938 179.696C135.809 178.986 134.674 179.199 133.255 181.116C122.257 196.242 111.189 211.154 100.191 226.209C98.4172 228.623 96.2177 230.257 93.0958 230.044C88.9806 229.76 86.3554 226.706 86.2844 222.09C86.2844 208.456 86.2844 194.822 86.2844 181.187C86.2844 175.577 86.2135 169.896 86.3554 164.286C86.3554 162.653 85.9297 161.872 84.2978 161.375C63.6507 154.416 43.0036 147.385 22.3566 140.284C17.3899 138.58 12.4942 136.805 7.45664 135.242C6.0376 134.816 4.76046 134.177 3.62523 133.183C2.48999 132.26 1.56762 131.053 1 129.703V126.082ZM216.836 36.3932L216.269 36.2512L106.719 153.634L194.912 183.744C202.291 134.39 209.599 85.3917 216.836 36.3932ZM26.8975 126.295C27.9618 126.721 28.7423 127.005 29.5227 127.289C49.4603 134.106 69.3978 140.852 89.3354 147.74C91.0382 148.309 91.9606 148.166 93.2377 146.817C125.734 111.879 158.301 76.9412 190.868 42.0742C191.364 41.5771 191.79 41.009 192.216 40.5119L191.932 40.2279L26.8975 126.295ZM101.184 167.127V200.076L120.554 173.731L101.184 167.127Z" fill="white"/>
</svg>
