<svg width="200" height="200" viewBox="0 0 200 200" fill="none" xmlns="http://www.w3.org/2000/svg">
<path d="M99.8765 158.977C59.2776 158.785 23.4226 126.375 23.6242 82.3075C23.8211 39.5009 57.4261 5.85369 100.167 5.999C143.794 6.14432 176.283 40.9775 176.283 82.5185C176.283 125.006 142.102 159.179 99.8765 158.977ZM112.313 65.0058C116.62 65.2542 119.241 63.2152 120.033 58.8651C120.68 55.3401 118.753 52.5604 114.684 51.3276C112.974 50.8046 111.229 50.4021 109.462 50.1229C107.944 49.8885 107.283 49.3822 107.152 47.6385C106.8 42.9509 103.772 40.0165 99.7968 40.1384C95.8217 40.2603 93.0795 43.19 92.8826 47.7838C92.817 49.2978 92.2029 49.7807 90.8951 50.0947C86.1513 51.2338 82.0169 53.376 79.0591 57.4448C73.1903 65.4746 74.095 76.4575 81.5622 81.4122C85.5935 84.0888 90.2248 85.9122 94.7155 87.8154C98.5733 89.4467 102.684 90.492 106.547 92.0998C108.037 92.7144 109.275 93.8168 110.058 95.2264C111.192 97.603 109.847 99.6374 106.861 100.701C100.894 102.834 95.2077 101.198 89.5404 99.328C87.4826 98.6483 85.4248 97.828 83.3013 97.5186C81.6643 97.2387 79.9815 97.5683 78.5711 98.445C77.1606 99.3217 76.1202 100.685 75.6465 102.276C74.62 105.881 75.8247 109.144 79.3122 110.686C82.9919 112.312 86.8685 113.498 90.6983 114.769C92.1045 115.238 92.8967 115.753 92.9014 117.469C92.8598 118.608 93.1003 119.74 93.6016 120.764C94.1029 121.788 94.8495 122.672 95.7749 123.338C100.434 126.67 106.177 123.999 107.067 117.839C107.344 115.922 108.192 115.495 109.683 114.989C115.402 113.114 120.22 110.189 122.859 104.334C126.633 95.9436 124.266 85.6591 116.766 81.3981C112.345 78.8903 107.391 77.2872 102.666 75.3512C98.9155 73.8231 95.067 72.609 91.4389 70.8793C88.7435 69.5949 88.8514 67.4574 91.3123 65.6714C93.9748 63.7308 97.0171 63.1683 100.176 63.4636C104.166 63.8386 108.155 64.462 112.313 65.0058Z" fill="white"/>
<path d="M55.5323 159.099H29.9243V170.279H170.133C170.133 166.885 170.222 163.557 170.026 160.252C170.026 159.811 168.549 159.122 167.752 159.108C160.721 159.019 153.718 159.057 146.705 159.057H144.024C144.316 158.663 144.653 158.305 145.027 157.988C154.336 152.376 162.524 145.087 169.177 136.491C169.58 135.971 170.222 135.338 170.79 135.296C176.476 134.897 182.04 135.296 186.849 138.839C191.584 142.336 193.782 147.216 193.88 152.958C194.04 160.771 194.04 168.583 193.88 176.396C193.693 187.135 185.79 194.382 174.408 194.382C125.683 194.382 76.9544 194.382 28.2227 194.382C25.9675 194.375 23.7143 194.248 21.4726 194.002C13.2694 193.121 6.50059 186.221 6.23809 177.957C5.96621 169.219 5.90058 160.458 6.23809 151.707C6.58965 142.496 13.846 135.872 23.1461 135.174C27.5899 134.841 30.7071 135.905 33.6649 139.646C39.2431 146.677 46.1385 152.504 53.8214 157.275C54.4682 157.679 55.087 158.129 55.6964 158.555L55.5323 159.099Z" fill="white"/>
</svg>
