<svg width="200" height="200" viewBox="0 0 200 200" fill="none" xmlns="http://www.w3.org/2000/svg">
<path d="M4.04035 115.473C4.04035 110.585 3.94956 105.696 4.04035 100.842C4.22193 92.8598 7.83951 89.0676 15.7521 88.8022C18.2942 88.7114 19.5513 87.7267 20.8852 85.5967C23.6458 81.3218 26.649 77.2086 29.8803 73.2773C31.1792 71.6641 31.6262 70.3371 31.0465 68.2769C29.3425 62.2569 27.9667 56.1391 26.3395 50.1191C25.5992 47.3815 25.9694 46.0825 29.2727 46.0756C37.0945 46.0756 44.8604 46.0756 51.8721 50.2658C53.3597 51.1528 55.0707 51.928 56.1462 53.206C59.0444 56.6979 62.5293 57.2007 66.8872 57.1169C81.8534 56.8096 96.8336 57.1658 111.814 56.9982C133.373 56.7537 153.591 71.28 161.182 91.917C163.934 99.4106 163.975 99.4175 172.146 99.2639C173.42 99.3277 174.697 99.1983 175.932 98.8798C178.823 97.902 180.122 95.5276 180.017 92.6573C179.898 89.5635 178.041 87.5242 175.024 86.7211C174.099 86.5698 173.166 86.4765 172.23 86.4417C166.999 85.6944 164.003 82.2514 164.457 77.5304C164.89 72.963 168.696 69.8832 173.76 70.0019C186.142 70.2883 196.52 80.729 196.436 92.8179C196.457 98.8114 194.123 104.573 189.936 108.862C185.75 113.151 180.045 115.623 174.053 115.746C170.938 115.843 167.069 114.97 164.974 116.493C163.089 117.848 163.158 121.905 162.327 124.769C159.45 134.998 153.646 144.164 145.629 151.139C144.196 152.533 143.318 154.399 143.157 156.391C142.843 162.299 143.094 168.229 143.01 174.151C142.926 180.806 139.197 184.78 132.535 185.171C128.827 185.395 125.11 185.395 121.402 185.171C114.789 184.766 111.066 180.729 110.927 174.13C110.885 171.692 110.808 169.241 110.927 166.818C111.032 164.723 110.298 163.864 108.175 163.871C95.8698 163.922 83.5644 163.922 71.2591 163.871C69.1011 163.871 68.4655 164.869 68.4655 166.853C68.5089 169.753 68.3946 172.653 68.1233 175.541C67.4669 181.393 63.9331 184.801 58.1296 185.164C54.3036 185.395 50.4673 185.395 46.6413 185.164C40.1743 184.794 36.1656 180.66 36.005 174.123C35.8374 168.208 35.8514 162.25 36.005 156.363C36.0609 153.919 35.3625 152.131 33.3721 150.713C32.1911 149.966 31.1646 148.998 30.3482 147.864C27.2125 142.898 22.666 142.151 17.2117 142.361C7.76967 142.724 4.09623 138.869 4.02639 129.455C3.99147 124.81 4.02639 120.166 4.02639 115.487L4.04035 115.473ZM62.4665 102.316C62.4665 97.6716 59.4355 94.5429 54.945 94.5568C52.8848 94.5418 50.9019 95.3401 49.427 96.7785C47.952 98.2169 47.104 100.179 47.0673 102.239C47.1012 104.292 47.9302 106.253 49.3799 107.708C50.8295 109.163 52.7868 109.999 54.8402 110.04C59.1911 110.075 62.4595 106.771 62.4665 102.316Z" fill="white"/>
<path d="M126.976 47.8773C123.526 47.4443 120.585 46.7808 117.631 46.7459C100.828 46.5317 84.0231 46.406 67.2155 46.3687C62.8995 46.3687 62.704 46.2431 63.2836 41.8573C64.2634 34.0108 68.1316 26.8109 74.1335 21.6626C80.1353 16.5144 87.84 13.7871 95.7442 14.013C103.71 14.2069 111.318 17.3586 117.087 22.8543C122.857 28.3499 126.374 35.7961 126.955 43.7428C127.052 44.965 126.976 46.2012 126.976 47.8773Z" fill="white"/>
</svg>
